Exetegue-Bold.ufo
<glyph name="exclam" format="2">
  <advance width="150"/>
  <unicode hex="0021"/>
  <outline>
    <contour>
      <point x="25" y="0" type="line"/>
      <point x="125" y="0" type="line"/>
      <point x="125" y="120" type="line"/>
      <point x="25" y="120" type="line"/>
    </contour>
    <contour>
      <point x="25" y="580" type="line"/>
      <point x="45" y="170" type="line"/>
      <point x="105" y="170" type="line"/>
      <point x="125" y="580" type="line"/>
      <point x="125" y="750" type="line"/>
      <point x="25" y="750" type="line"/>
    </contour>
  </outline>
</glyph>
<glyph name="quotedbl" format="2">
  <advance width="275"/>
  <unicode hex="0022"/>
  <outline>
    <contour>
      <point x="45" y="500" type="line"/>
      <point x="105" y="500" type="line"/>
      <point x="125" y="650" type="line"/>
      <point x="125" y="750" type="line"/>
      <point x="25" y="750" type="line"/>
      <point x="25" y="650" type="line"/>
    </contour>
    <contour>
      <point x="170" y="500" type="line"/>
      <point x="230" y="500" type="line"/>
      <point x="250" y="650" type="line"/>
      <point x="250" y="750" type="line"/>
      <point x="150" y="750" type="line"/>
      <point x="150" y="650" type="line"/>
    </contour>
  </outline>
</glyph>
<glyph name="numbersign" format="2">
  <advance width="375"/>
  <unicode hex="0023"/>
  <outline>
    <contour>
      <point x="55" y="0" type="line"/>
      <point x="145" y="0" type="line"/>
      <point x="195" y="750" type="line"/>
      <point x="105" y="750" type="line"/>
    </contour>
    <contour>
      <point x="175" y="0" type="line"/>
      <point x="265" y="0" type="line"/>
      <point x="315" y="750" type="line"/>
      <point x="225" y="750" type="line"/>
    </contour>
    <contour>
      <point x="25" y="466" type="line"/>
      <point x="364" y="466" type="line"/>
      <point x="370" y="550" type="line"/>
      <point x="31" y="550" type="line"/>
    </contour>
    <contour>
      <point x="5" y="210" type="line"/>
      <point x="344" y="210" type="line"/>
      <point x="350" y="294" type="line"/>
      <point x="11" y="294" type="line"/>
    </contour>
  </outline>
</glyph>
<glyph name="dollar" format="2">
  <advance width="290"/>
  <unicode hex="0024"/>
  <outline>
    <component base="S.alt" yOffset="65"/>
    <contour>
      <point x="95" y="0" type="line"/>
      <point x="195" y="0" type="line"/>
      <point x="195" y="75" type="line"/>
      <point x="95" y="75" type="line"/>
    </contour>
    <contour>
      <point x="95" y="675" type="line"/>
      <point x="195" y="675" type="line"/>
      <point x="195" y="750" type="line"/>
      <point x="95" y="750" type="line"/>
    </contour>
  </outline>
  <guideline angle="0" x="0" y="625"/>
  <guideline angle="0" x="0" y="635"/>
  <guideline angle="0" x="0" y="105"/>
  <guideline angle="0" x="0" y="115"/>
</glyph>
<glyph name="ampersand" format="2">
  <advance width="300"/>
  <unicode hex="0026"/>
  <outline>
    <contour>
      <point x="150" y="335" type="line"/>
      <point x="61" y="335"/>
      <point x="25" y="381"/>
      <point x="25" y="460" type="curve" smooth="yes"/>
      <point x="25" y="635" type="line" smooth="yes"/>
      <point x="25" y="714"/>
      <point x="61" y="760"/>
      <point x="150" y="760" type="curve" smooth="yes"/>
      <point x="239" y="760"/>
      <point x="275" y="714"/>
      <point x="275" y="635" type="curve" smooth="yes"/>
      <point x="275" y="494" type="line"/>
      <point x="175" y="494" type="line"/>
      <point x="175" y="645" type="line" smooth="yes"/>
      <point x="175" y="659"/>
      <point x="167" y="670"/>
      <point x="150" y="670" type="curve" smooth="yes"/>
      <point x="133" y="670"/>
      <point x="125" y="659"/>
      <point x="125" y="645" type="curve" smooth="yes"/>
      <point x="125" y="450" type="line" smooth="yes"/>
      <point x="125" y="436"/>
      <point x="133" y="425"/>
      <point x="150" y="425" type="curve"/>
    </contour>
    <contour>
      <point x="150" y="335" type="line"/>
      <point x="133" y="335"/>
      <point x="125" y="324"/>
      <point x="125" y="310" type="curve" smooth="yes"/>
      <point x="125" y="105" type="line" smooth="yes"/>
      <point x="125" y="91"/>
      <point x="133" y="80"/>
      <point x="150" y="80" type="curve" smooth="yes"/>
      <point x="167" y="80"/>
      <point x="175" y="91"/>
      <point x="175" y="105" type="curve" smooth="yes"/>
      <point x="175" y="361" type="line"/>
      <point x="275" y="361" type="line"/>
      <point x="275" y="115" type="line" smooth="yes"/>
      <point x="275" y="36"/>
      <point x="239" y="-10"/>
      <point x="150" y="-10" type="curve" smooth="yes"/>
      <point x="61" y="-10"/>
      <point x="25" y="36"/>
      <point x="25" y="115" type="curve" smooth="yes"/>
      <point x="25" y="300" type="line" smooth="yes"/>
      <point x="25" y="379"/>
      <point x="61" y="425"/>
      <point x="150" y="425" type="curve"/>
    </contour>
    <contour>
      <point x="300" y="335" type="line"/>
      <point x="150" y="335" type="line"/>
      <point x="150" y="425" type="line"/>
      <point x="300" y="425" type="line"/>
    </contour>
  </outline>
  <guideline angle="0" x="0" y="125"/>
  <guideline angle="90" x="25" y="0"/>
  <guideline angle="90" x="125" y="0"/>
  <guideline angle="90" x="175" y="0"/>
  <guideline angle="90" x="275" y="0"/>
</glyph>
<glyph name="quotesingle" format="2">
  <advance width="150"/>
  <unicode hex="0027"/>
  <outline>
    <contour>
      <point x="45" y="500" type="line"/>
      <point x="105" y="500" type="line"/>
      <point x="125" y="650" type="line"/>
      <point x="125" y="750" type="line"/>
      <point x="25" y="750" type="line"/>
      <point x="25" y="650" type="line"/>
    </contour>
  </outline>
</glyph>
<glyph name="parenleft" format="2">
  <advance width="188"/>
  <unicode hex="0028"/>
  <outline>
    <contour>
      <point x="84" y="791" type="line"/>
      <point x="84" y="791"/>
      <point x="30" y="655"/>
      <point x="30" y="375" type="curve" smooth="yes"/>
      <point x="30" y="95"/>
      <point x="84" y="-41"/>
      <point x="84" y="-41" type="curve"/>
      <point x="176" y="-9" type="line"/>
      <point x="176" y="-9"/>
      <point x="130" y="107"/>
      <point x="130" y="375" type="curve" smooth="yes"/>
      <point x="130" y="643"/>
      <point x="176" y="759"/>
      <point x="176" y="759" type="curve"/>
    </contour>
  </outline>
  <guideline angle="0" x="0" y="740"/>
</glyph>
<glyph name="parenright" format="2">
  <advance width="188"/>
  <unicode hex="0029"/>
  <outline>
    <contour>
      <point x="104" y="791" type="line"/>
      <point x="104" y="791"/>
      <point x="158" y="655"/>
      <point x="158" y="375" type="curve" smooth="yes"/>
      <point x="158" y="95"/>
      <point x="104" y="-41"/>
      <point x="104" y="-41" type="curve"/>
      <point x="12" y="-9" type="line"/>
      <point x="12" y="-9"/>
      <point x="58" y="107"/>
      <point x="58" y="375" type="curve" smooth="yes"/>
      <point x="58" y="643"/>
      <point x="12" y="759"/>
      <point x="12" y="759" type="curve"/>
    </contour>
  </outline>
  <guideline angle="0" x="0" y="740"/>
</glyph>
<glyph name="comma" format="2">
  <advance width="150"/>
  <unicode hex="002C"/>
  <outline>
    <contour>
      <point x="25" y="0" type="line"/>
      <point x="60" y="0" type="line"/>
      <point x="35" y="-90" type="line"/>
      <point x="85" y="-90" type="line"/>
      <point x="125" y="10" type="line"/>
      <point x="125" y="120" type="line"/>
      <point x="25" y="120" type="line"/>
    </contour>
  </outline>
</glyph>
<glyph name="slash" format="2">
  <advance width="260"/>
  <unicode hex="002F"/>
  <outline>
    <contour>
      <point x="45" y="0" type="line"/>
      <point x="145" y="0" type="line"/>
      <point x="215" y="750" type="line"/>
      <point x="115" y="750" type="line"/>
    </contour>
  </outline>
</glyph>
<glyph name="one" format="2">
  <advance width="205"/>
  <unicode hex="0031"/>
  <outline>
    <contour>
      <point x="10" y="690" type="line"/>
      <point x="10" y="606" type="line"/>
      <point x="80" y="606" type="line"/>
      <point x="80" y="0" type="line"/>
      <point x="180" y="0" type="line"/>
      <point x="180" y="750" type="line"/>
      <point x="105" y="750" type="line"/>
      <point x="105" y="709"/>
      <point x="79" y="690"/>
      <point x="30" y="690" type="curve" smooth="yes"/>
    </contour>
  </outline>
</glyph>
<glyph name="two" format="2">
  <advance width="290"/>
  <unicode hex="0032"/>
  <outline>
    <contour>
      <point x="120" y="479" type="line"/>
      <point x="120" y="645" type="line" smooth="yes"/>
      <point x="120" y="659"/>
      <point x="128" y="670"/>
      <point x="145" y="670" type="curve" smooth="yes"/>
      <point x="162" y="670"/>
      <point x="170" y="659"/>
      <point x="170" y="645" type="curve" smooth="yes"/>
      <point x="170" y="524" type="line" smooth="yes"/>
      <point x="170" y="515"/>
      <point x="168" y="502"/>
      <point x="165" y="496" type="curve"/>
      <point x="44" y="188" type="line" smooth="yes"/>
      <point x="26" y="142"/>
      <point x="20" y="127"/>
      <point x="20" y="105" type="curve" smooth="yes"/>
      <point x="20" y="84" type="line"/>
      <point x="120" y="84" type="line"/>
      <point x="120" y="110" type="line"/>
      <point x="120" y="117"/>
      <point x="122" y="126"/>
      <point x="124" y="132" type="curve"/>
      <point x="249" y="450" type="line" smooth="yes"/>
      <point x="261" y="480"/>
      <point x="270" y="512"/>
      <point x="270" y="529" type="curve" smooth="yes"/>
      <point x="270" y="635" type="line" smooth="yes"/>
      <point x="270" y="714"/>
      <point x="234" y="760"/>
      <point x="145" y="760" type="curve" smooth="yes"/>
      <point x="56" y="760"/>
      <point x="20" y="714"/>
      <point x="20" y="635" type="curve" smooth="yes"/>
      <point x="20" y="479" type="line"/>
    </contour>
    <contour>
      <point x="20" y="0" type="line"/>
      <point x="270" y="0" type="line"/>
      <point x="270" y="84" type="line"/>
      <point x="20" y="84" type="line"/>
    </contour>
  </outline>
  <guideline angle="0" x="0" y="625"/>
  <guideline angle="0" x="0" y="635"/>
  <guideline angle="0" x="0" y="105"/>
  <guideline angle="0" x="0" y="115"/>
  <guideline angle="90" x="50" y="0"/>
  <guideline angle="90" x="270" y="0"/>
  <guideline angle="90" x="20" y="0"/>
</glyph>
<glyph name="four" format="2">
  <advance width="290"/>
  <unicode hex="0034"/>
  <outline>
    <contour>
      <point x="165" y="0" type="line"/>
      <point x="265" y="0" type="line"/>
      <point x="265" y="650" type="line"/>
      <point x="165" y="650" type="line"/>
    </contour>
    <contour>
      <point x="15" y="190" type="line"/>
      <point x="220" y="190" type="line"/>
      <point x="220" y="274" type="line"/>
      <point x="115" y="274" type="line"/>
      <point x="15" y="264" type="line"/>
    </contour>
    <contour>
      <point x="15" y="264" type="line"/>
      <point x="115" y="274" type="line"/>
      <point x="145" y="750" type="line"/>
      <point x="45" y="750" type="line"/>
    </contour>
  </outline>
</glyph>
<glyph name="five" format="2">
  <advance width="300"/>
  <unicode hex="0035"/>
  <outline>
    <contour>
      <point x="25" y="261" type="line"/>
      <point x="25" y="115" type="line" smooth="yes"/>
      <point x="25" y="36"/>
      <point x="61" y="-10"/>
      <point x="150" y="-10" type="curve" smooth="yes"/>
      <point x="239" y="-10"/>
      <point x="275" y="36"/>
      <point x="275" y="115" type="curve" smooth="yes"/>
      <point x="275" y="395" type="line" smooth="yes"/>
      <point x="275" y="480"/>
      <point x="229" y="520"/>
      <point x="165" y="520" type="curve" smooth="yes"/>
      <point x="151" y="520"/>
      <point x="138" y="518"/>
      <point x="125" y="514" type="curve"/>
      <point x="125" y="666" type="line"/>
      <point x="265" y="666" type="line"/>
      <point x="265" y="750" type="line"/>
      <point x="25" y="750" type="line"/>
      <point x="25" y="373" type="line"/>
      <point x="125" y="373" type="line"/>
      <point x="125" y="410" type="line" smooth="yes"/>
      <point x="125" y="424"/>
      <point x="133" y="435"/>
      <point x="150" y="435" type="curve" smooth="yes"/>
      <point x="167" y="435"/>
      <point x="175" y="424"/>
      <point x="175" y="410" type="curve" smooth="yes"/>
      <point x="175" y="105" type="line" smooth="yes"/>
      <point x="175" y="91"/>
      <point x="167" y="80"/>
      <point x="150" y="80" type="curve" smooth="yes"/>
      <point x="133" y="80"/>
      <point x="125" y="91"/>
      <point x="125" y="105" type="curve" smooth="yes"/>
      <point x="125" y="261" type="line"/>
    </contour>
  </outline>
  <guideline angle="90" x="275" y="0"/>
</glyph>
<glyph name="six" format="2">
  <advance width="300"/>
  <unicode hex="0036"/>
  <outline>
    <contour>
      <point x="165" y="510" type="curve" smooth="yes"/>
      <point x="151" y="510"/>
      <point x="138" y="508"/>
      <point x="125" y="504" type="curve"/>
      <point x="125" y="645" type="line" smooth="yes"/>
      <point x="125" y="659"/>
      <point x="133" y="670"/>
      <point x="150" y="670" type="curve" smooth="yes"/>
      <point x="167" y="670"/>
      <point x="175" y="659"/>
      <point x="175" y="645" type="curve" smooth="yes"/>
      <point x="175" y="550" type="line"/>
      <point x="275" y="550" type="line"/>
      <point x="275" y="635" type="line" smooth="yes"/>
      <point x="275" y="714"/>
      <point x="239" y="760"/>
      <point x="150" y="760" type="curve" smooth="yes"/>
      <point x="61" y="760"/>
      <point x="25" y="714"/>
      <point x="25" y="635" type="curve" smooth="yes"/>
      <point x="25" y="115" type="line" smooth="yes"/>
      <point x="25" y="36"/>
      <point x="61" y="-10"/>
      <point x="150" y="-10" type="curve" smooth="yes"/>
      <point x="239" y="-10"/>
      <point x="275" y="36"/>
      <point x="275" y="115" type="curve" smooth="yes"/>
      <point x="275" y="385" type="line" smooth="yes"/>
      <point x="275" y="470"/>
      <point x="229" y="510"/>
    </contour>
    <contour>
      <point x="175" y="105" type="line" smooth="yes"/>
      <point x="175" y="91"/>
      <point x="167" y="80"/>
      <point x="150" y="80" type="curve" smooth="yes"/>
      <point x="133" y="80"/>
      <point x="125" y="91"/>
      <point x="125" y="105" type="curve" smooth="yes"/>
      <point x="125" y="400" type="line"/>
      <point x="125" y="414"/>
      <point x="133" y="425"/>
      <point x="150" y="425" type="curve" smooth="yes"/>
      <point x="167" y="425"/>
      <point x="175" y="414"/>
      <point x="175" y="400" type="curve" smooth="yes"/>
    </contour>
  </outline>
</glyph>
<glyph name="seven" format="2">
  <advance width="245"/>
  <unicode hex="0037"/>
  <outline>
    <contour>
      <point x="5" y="666" type="line"/>
      <point x="124" y="666" type="line"/>
      <point x="225" y="676" type="line"/>
      <point x="225" y="750" type="line"/>
      <point x="5" y="750" type="line"/>
    </contour>
    <contour>
      <point x="43" y="0" type="line"/>
      <point x="143" y="0" type="line"/>
      <point x="225" y="676" type="line"/>
      <point x="124" y="666" type="line"/>
    </contour>
  </outline>
  <guideline angle="90" x="190" y="0"/>
  <guideline angle="90" x="40" y="0"/>
</glyph>
<glyph name="eight" format="2">
  <advance width="300"/>
  <unicode hex="0038"/>
  <outline>
    <contour>
      <point x="150" y="-10" type="curve" smooth="yes"/>
      <point x="239" y="-10"/>
      <point x="275" y="36"/>
      <point x="275" y="115" type="curve" smooth="yes"/>
      <point x="275" y="295" type="line" smooth="yes"/>
      <point x="275" y="374"/>
      <point x="239" y="420"/>
      <point x="150" y="420" type="curve" smooth="yes"/>
      <point x="61" y="420"/>
      <point x="25" y="374"/>
      <point x="25" y="295" type="curve" smooth="yes"/>
      <point x="25" y="115" type="line" smooth="yes"/>
      <point x="25" y="36"/>
      <point x="61" y="-10"/>
    </contour>
    <contour>
      <point x="125" y="335" type="line" smooth="yes"/>
      <point x="125" y="349"/>
      <point x="133" y="360"/>
      <point x="150" y="360" type="curve" smooth="yes"/>
      <point x="167" y="360"/>
      <point x="175" y="349"/>
      <point x="175" y="335" type="curve" smooth="yes"/>
      <point x="175" y="105" type="line" smooth="yes"/>
      <point x="175" y="91"/>
      <point x="167" y="80"/>
      <point x="150" y="80" type="curve" smooth="yes"/>
      <point x="133" y="80"/>
      <point x="125" y="91"/>
      <point x="125" y="105" type="curve" smooth="yes"/>
    </contour>
    <contour>
      <point x="150" y="760" type="curve"/>
      <point x="61" y="760"/>
      <point x="25" y="714"/>
      <point x="25" y="635" type="curve" smooth="yes"/>
      <point x="25" y="515" type="line" smooth="yes"/>
      <point x="25" y="436"/>
      <point x="61" y="390"/>
      <point x="150" y="390" type="curve" smooth="yes"/>
      <point x="239" y="390"/>
      <point x="275" y="436"/>
      <point x="275" y="515" type="curve" smooth="yes"/>
      <point x="275" y="635" type="line" smooth="yes"/>
      <point x="275" y="714"/>
      <point x="239" y="760"/>
    </contour>
    <contour>
      <point x="175" y="475" type="line"/>
      <point x="175" y="461"/>
      <point x="167" y="450"/>
      <point x="150" y="450" type="curve" smooth="yes"/>
      <point x="133" y="450"/>
      <point x="125" y="461"/>
      <point x="125" y="475" type="curve" smooth="yes"/>
      <point x="125" y="645" type="line" smooth="yes"/>
      <point x="125" y="659"/>
      <point x="133" y="670"/>
      <point x="150" y="670" type="curve" smooth="yes"/>
      <point x="167" y="670"/>
      <point x="175" y="659"/>
      <point x="175" y="645" type="curve"/>
    </contour>
  </outline>
</glyph>
<glyph name="question" format="2">
  <advance width="290"/>
  <unicode hex="003F"/>
  <outline>
    <contour>
      <point x="181" y="298" type="line"/>
      <point x="181" y="304"/>
      <point x="184" y="311"/>
      <point x="188" y="316" type="curve" smooth="yes"/>
      <point x="244" y="387" type="line"/>
      <point x="258" y="403"/>
      <point x="270" y="433"/>
      <point x="270" y="463" type="curve" smooth="yes"/>
      <point x="270" y="635" type="line" smooth="yes"/>
      <point x="270" y="714"/>
      <point x="234" y="760"/>
      <point x="145" y="760" type="curve" smooth="yes"/>
      <point x="56" y="760"/>
      <point x="20" y="714"/>
      <point x="20" y="635" type="curve" smooth="yes"/>
      <point x="20" y="479" type="line"/>
      <point x="120" y="479" type="line"/>
      <point x="120" y="645" type="line" smooth="yes"/>
      <point x="120" y="659"/>
      <point x="128" y="670"/>
      <point x="145" y="670" type="curve" smooth="yes"/>
      <point x="162" y="670"/>
      <point x="170" y="659"/>
      <point x="170" y="645" type="curve" smooth="yes"/>
      <point x="170" y="458" type="line" smooth="yes"/>
      <point x="170" y="452"/>
      <point x="167" y="446"/>
      <point x="164" y="443" type="curve"/>
      <point x="136" y="408" type="line" smooth="yes"/>
      <point x="117" y="384"/>
      <point x="106" y="349"/>
      <point x="108" y="319" type="curve" smooth="yes"/>
      <point x="115" y="170" type="line"/>
      <point x="175" y="170" type="line"/>
    </contour>
    <contour>
      <point x="95" y="0" type="line"/>
      <point x="195" y="0" type="line"/>
      <point x="195" y="120" type="line"/>
      <point x="95" y="120" type="line"/>
    </contour>
  </outline>
  <guideline angle="0" x="0" y="625"/>
  <guideline angle="0" x="0" y="635"/>
  <guideline angle="0" x="0" y="105"/>
  <guideline angle="0" x="0" y="115"/>
  <guideline angle="90" x="145" y="0"/>
</glyph>
<glyph name="B" format="2">
  <advance width="300"/>
  <unicode hex="0042"/>
  <outline>
    <contour>
      <point x="275" y="125" type="curve"/>
      <point x="275" y="276" type="line" smooth="yes"/>
      <point x="275" y="355"/>
      <point x="239" y="401"/>
      <point x="150" y="401" type="curve" smooth="yes"/>
      <point x="25" y="401" type="line"/>
      <point x="25" y="0" type="line"/>
      <point x="150" y="0" type="line" smooth="yes"/>
      <point x="239" y="0"/>
      <point x="275" y="46"/>
    </contour>
    <contour>
      <point x="125" y="337" type="line"/>
      <point x="150" y="337" type="line" smooth="yes"/>
      <point x="167" y="337"/>
      <point x="175" y="326"/>
      <point x="175" y="312" type="curve" smooth="yes"/>
      <point x="175" y="109" type="line" smooth="yes"/>
      <point x="175" y="95"/>
      <point x="167" y="84"/>
      <point x="150" y="84" type="curve" smooth="yes"/>
      <point x="125" y="84" type="line"/>
    </contour>
    <contour>
      <point x="270" y="625" type="line" smooth="yes"/>
      <point x="270" y="704"/>
      <point x="234" y="750"/>
      <point x="145" y="750" type="curve" smooth="yes"/>
      <point x="25" y="750" type="line"/>
      <point x="25" y="351" type="line"/>
      <point x="145" y="351" type="line" smooth="yes"/>
      <point x="234" y="351"/>
      <point x="270" y="397"/>
      <point x="270" y="476" type="curve" smooth="yes"/>
    </contour>
    <contour>
      <point x="125" y="666" type="line"/>
      <point x="145" y="666" type="line" smooth="yes"/>
      <point x="162" y="666"/>
      <point x="170" y="655"/>
      <point x="170" y="641" type="curve" smooth="yes"/>
      <point x="170" y="445" type="line" smooth="yes"/>
      <point x="170" y="431"/>
      <point x="162" y="420"/>
      <point x="145" y="420" type="curve" smooth="yes"/>
      <point x="125" y="420" type="line"/>
    </contour>
  </outline>
</glyph>
<glyph name="D" format="2">
  <advance width="300"/>
  <unicode hex="0044"/>
  <outline>
    <contour>
      <point x="275" y="125" type="curve"/>
      <point x="275" y="625" type="line" smooth="yes"/>
      <point x="275" y="704"/>
      <point x="239" y="750"/>
      <point x="150" y="750" type="curve" smooth="yes"/>
      <point x="25" y="750" type="line"/>
      <point x="25" y="0" type="line"/>
      <point x="150" y="0" type="line" smooth="yes"/>
      <point x="239" y="0"/>
      <point x="275" y="46"/>
    </contour>
    <contour>
      <point x="125" y="666" type="line"/>
      <point x="150" y="666" type="line" smooth="yes"/>
      <point x="167" y="666"/>
      <point x="175" y="655"/>
      <point x="175" y="641" type="curve" smooth="yes"/>
      <point x="175" y="109" type="line" smooth="yes"/>
      <point x="175" y="95"/>
      <point x="167" y="84"/>
      <point x="150" y="84" type="curve" smooth="yes"/>
      <point x="125" y="84" type="line"/>
    </contour>
  </outline>
  <guideline angle="0" x="0" y="125"/>
  <guideline angle="0" x="0" y="635"/>
  <guideline angle="90" x="25" y="0"/>
  <guideline angle="90" x="125" y="0"/>
  <guideline angle="90" x="175" y="0"/>
  <guideline angle="90" x="275" y="0"/>
</glyph>
<glyph name="E" format="2">
  <advance width="240"/>
  <unicode hex="0045"/>
  <outline>
    <contour>
      <point x="25" y="0" type="line"/>
      <point x="125" y="0" type="line"/>
      <point x="125" y="750" type="line"/>
      <point x="25" y="750" type="line"/>
    </contour>
    <contour>
      <point x="125" y="666" type="line"/>
      <point x="225" y="666" type="line"/>
      <point x="225" y="750" type="line"/>
      <point x="125" y="750" type="line"/>
    </contour>
    <contour>
      <point x="125" y="0" type="line"/>
      <point x="225" y="0" type="line"/>
      <point x="225" y="84" type="line"/>
      <point x="125" y="84" type="line"/>
    </contour>
    <contour>
      <point x="95" y="350" type="line"/>
      <point x="200" y="350" type="line"/>
      <point x="200" y="434" type="line"/>
      <point x="95" y="434" type="line"/>
    </contour>
  </outline>
  <guideline angle="0" x="0" y="387"/>
</glyph>
<glyph name="F" format="2">
  <advance width="220"/>
  <unicode hex="0046"/>
  <outline>
    <contour>
      <point x="25" y="0" type="line"/>
      <point x="125" y="0" type="line"/>
      <point x="125" y="750" type="line"/>
      <point x="25" y="750" type="line"/>
    </contour>
    <contour>
      <point x="125" y="666" type="line"/>
      <point x="215" y="666" type="line"/>
      <point x="215" y="750" type="line"/>
      <point x="125" y="750" type="line"/>
    </contour>
    <contour>
      <point x="95" y="345" type="line"/>
      <point x="200" y="345" type="line"/>
      <point x="200" y="429" type="line"/>
      <point x="95" y="429" type="line"/>
    </contour>
  </outline>
  <guideline angle="0" x="0" y="383"/>
</glyph>
<glyph name="G" format="2">
  <advance width="300"/>
  <unicode hex="0047"/>
  <outline>
    <contour>
      <point x="175" y="360" type="line"/>
      <point x="175" y="105" type="line" smooth="yes"/>
      <point x="175" y="91"/>
      <point x="167" y="80"/>
      <point x="150" y="80" type="curve" smooth="yes"/>
      <point x="133" y="80"/>
      <point x="125" y="91"/>
      <point x="125" y="105" type="curve" smooth="yes"/>
      <point x="125" y="645" type="line" smooth="yes"/>
      <point x="125" y="659"/>
      <point x="133" y="670"/>
      <point x="150" y="670" type="curve" smooth="yes"/>
      <point x="167" y="670"/>
      <point x="175" y="659"/>
      <point x="175" y="645" type="curve" smooth="yes"/>
      <point x="175" y="439" type="line"/>
      <point x="275" y="439" type="line"/>
      <point x="275" y="635" type="line" smooth="yes"/>
      <point x="275" y="714"/>
      <point x="239" y="760"/>
      <point x="150" y="760" type="curve" smooth="yes"/>
      <point x="61" y="760"/>
      <point x="25" y="714"/>
      <point x="25" y="635" type="curve" smooth="yes"/>
      <point x="25" y="115" type="line" smooth="yes"/>
      <point x="25" y="36"/>
      <point x="61" y="-10"/>
      <point x="150" y="-10" type="curve" smooth="yes"/>
      <point x="239" y="-10"/>
      <point x="275" y="36"/>
      <point x="275" y="115" type="curve" smooth="yes"/>
      <point x="275" y="360" type="line"/>
    </contour>
    <contour>
      <point x="150" y="276" type="line"/>
      <point x="175" y="276" type="line"/>
      <point x="175" y="360" type="line"/>
      <point x="150" y="360" type="line"/>
    </contour>
  </outline>
  <guideline angle="0" x="0" y="125"/>
  <guideline angle="90" x="25" y="0"/>
  <guideline angle="90" x="125" y="0"/>
  <guideline angle="90" x="175" y="0"/>
  <guideline angle="90" x="275" y="0"/>
</glyph>
<glyph name="H" format="2">
  <advance width="300"/>
  <unicode hex="0048"/>
  <outline>
    <contour>
      <point x="25" y="0" type="line"/>
      <point x="125" y="0" type="line"/>
      <point x="125" y="750" type="line"/>
      <point x="25" y="750" type="line"/>
    </contour>
    <contour>
      <point x="175" y="0" type="line"/>
      <point x="275" y="0" type="line"/>
      <point x="275" y="750" type="line"/>
      <point x="175" y="750" type="line"/>
    </contour>
    <contour>
      <point x="75" y="340" type="line"/>
      <point x="195" y="340" type="line"/>
      <point x="195" y="424" type="line"/>
      <point x="75" y="424" type="line"/>
    </contour>
  </outline>
</glyph>
<glyph name="I" format="2">
  <advance width="150"/>
  <unicode hex="0049"/>
  <outline>
    <contour>
      <point x="25" y="0" type="line"/>
      <point x="125" y="0" type="line"/>
      <point x="125" y="750" type="line"/>
      <point x="25" y="750" type="line"/>
    </contour>
  </outline>
</glyph>
<glyph name="K" format="2">
  <advance width="290"/>
  <unicode hex="004B"/>
  <outline>
    <contour>
      <point x="188" y="0" type="line"/>
      <point x="290" y="0" type="line"/>
      <point x="198" y="416" type="line"/>
      <point x="280" y="750" type="line"/>
      <point x="177" y="750" type="line"/>
      <point x="143" y="602" type="line" smooth="yes"/>
      <point x="130" y="547"/>
      <point x="124" y="474"/>
      <point x="124" y="474" type="curve"/>
      <point x="122" y="474" type="line"/>
      <point x="122" y="474"/>
      <point x="125" y="545"/>
      <point x="125" y="605" type="curve" smooth="yes"/>
      <point x="125" y="750" type="line"/>
      <point x="25" y="750" type="line"/>
      <point x="25" y="0" type="line"/>
      <point x="125" y="0" type="line"/>
      <point x="125" y="215" type="line"/>
      <point x="134" y="275" type="line"/>
    </contour>
  </outline>
</glyph>
<glyph name="L" format="2">
  <advance width="215"/>
  <unicode hex="004C"/>
  <outline>
    <contour>
      <point x="25" y="0" type="line"/>
      <point x="125" y="0" type="line"/>
      <point x="125" y="750" type="line"/>
      <point x="25" y="750" type="line"/>
    </contour>
    <contour>
      <point x="125" y="0" type="line"/>
      <point x="205" y="0" type="line"/>
      <point x="205" y="84" type="line"/>
      <point x="125" y="84" type="line"/>
    </contour>
  </outline>
</glyph>
<glyph name="M" format="2">
  <advance width="370"/>
  <unicode hex="004D"/>
  <outline>
    <contour>
      <point x="184" y="364" type="line"/>
      <point x="184" y="364"/>
      <point x="183" y="382"/>
      <point x="179" y="401" type="curve" smooth="yes"/>
      <point x="115" y="750" type="line"/>
      <point x="25" y="750" type="line"/>
      <point x="25" y="0" type="line"/>
      <point x="125" y="0" type="line"/>
      <point x="125" y="0"/>
      <point x="125" y="140"/>
      <point x="125" y="181" type="curve" smooth="yes"/>
      <point x="125" y="250"/>
      <point x="115" y="348"/>
      <point x="110" y="400" type="curve"/>
      <point x="113" y="401" type="line"/>
      <point x="118" y="349"/>
      <point x="132" y="281"/>
      <point x="141" y="230" type="curve" smooth="yes"/>
      <point x="150" y="180" type="line"/>
      <point x="220" y="180" type="line"/>
      <point x="229" y="230" type="line" smooth="yes"/>
      <point x="238" y="281"/>
      <point x="252" y="349"/>
      <point x="257" y="401" type="curve"/>
      <point x="260" y="400" type="line"/>
      <point x="255" y="348"/>
      <point x="245" y="250"/>
      <point x="245" y="180" type="curve" smooth="yes"/>
      <point x="245" y="122"/>
      <point x="245" y="0"/>
      <point x="245" y="0" type="curve"/>
      <point x="345" y="0" type="line"/>
      <point x="345" y="750" type="line"/>
      <point x="255" y="750" type="line"/>
      <point x="191" y="401" type="line" smooth="yes"/>
      <point x="187" y="381"/>
      <point x="186" y="364"/>
      <point x="186" y="364" type="curve"/>
    </contour>
  </outline>
  <guideline angle="90" x="95" y="0"/>
  <guideline angle="90" x="275" y="0"/>
  <guideline angle="90" x="185" y="0"/>
</glyph>
<glyph name="N" format="2">
  <advance width="310"/>
  <unicode hex="004E"/>
  <outline>
    <contour>
      <point x="117" y="415" type="line"/>
      <point x="195" y="0" type="line"/>
      <point x="285" y="0" type="line"/>
      <point x="285" y="750" type="line"/>
      <point x="185" y="750" type="line"/>
      <point x="185" y="530" type="line"/>
      <point x="185" y="430"/>
      <point x="196" y="356"/>
      <point x="196" y="356" type="curve"/>
      <point x="194" y="355" type="line"/>
      <point x="115" y="750" type="line"/>
      <point x="25" y="750" type="line"/>
      <point x="25" y="0" type="line"/>
      <point x="125" y="0" type="line"/>
      <point x="125" y="241" type="line"/>
      <point x="125" y="320"/>
      <point x="115" y="414"/>
      <point x="115" y="414" type="curve"/>
    </contour>
  </outline>
  <guideline angle="90" x="95" y="0"/>
  <guideline angle="90" x="215" y="0"/>
</glyph>
<glyph name="P" format="2">
  <advance width="300"/>
  <unicode hex="0050"/>
  <outline>
    <contour>
      <point x="275" y="371" type="curve"/>
      <point x="275" y="625" type="line" smooth="yes"/>
      <point x="275" y="704"/>
      <point x="239" y="750"/>
      <point x="150" y="750" type="curve" smooth="yes"/>
      <point x="25" y="750" type="line"/>
      <point x="25" y="246" type="line"/>
      <point x="150" y="246" type="line" smooth="yes"/>
      <point x="239" y="246"/>
      <point x="275" y="292"/>
    </contour>
    <contour>
      <point x="125" y="666" type="line"/>
      <point x="150" y="666" type="line" smooth="yes"/>
      <point x="167" y="666"/>
      <point x="175" y="655"/>
      <point x="175" y="641" type="curve" smooth="yes"/>
      <point x="175" y="355" type="line" smooth="yes"/>
      <point x="175" y="341"/>
      <point x="167" y="330"/>
      <point x="150" y="330" type="curve" smooth="yes"/>
      <point x="125" y="330" type="line"/>
    </contour>
    <contour>
      <point x="25" y="0" type="line"/>
      <point x="125" y="0" type="line"/>
      <point x="125" y="246" type="line"/>
      <point x="25" y="246" type="line"/>
    </contour>
  </outline>
  <guideline angle="90" x="55" y="0"/>
  <guideline angle="90" x="95" y="0"/>
</glyph>
<glyph name="Q" format="2">
  <advance width="300"/>
  <unicode hex="0051"/>
  <outline>
    <component base="O"/>
    <contour>
      <point x="105" y="-75" type="line"/>
      <point x="195" y="-75" type="line"/>
      <point x="195" y="50" type="line"/>
      <point x="105" y="50" type="line"/>
    </contour>
  </outline>
  <guideline angle="0" x="0" y="125"/>
  <guideline angle="90" x="25" y="0"/>
  <guideline angle="90" x="125" y="0"/>
  <guideline angle="90" x="175" y="0"/>
  <guideline angle="90" x="275" y="0"/>
</glyph>
<glyph name="R" format="2">
  <advance width="300"/>
  <unicode hex="0052"/>
  <outline>
    <contour>
      <point x="200" y="0" type="line"/>
      <point x="300" y="0" type="line"/>
      <point x="271" y="150" type="line" smooth="yes"/>
      <point x="252" y="247"/>
      <point x="210" y="320"/>
      <point x="210" y="320" type="curve"/>
      <point x="140" y="320" type="line"/>
    </contour>
    <contour>
      <point x="275" y="391" type="curve"/>
      <point x="275" y="625" type="line" smooth="yes"/>
      <point x="275" y="704"/>
      <point x="239" y="750"/>
      <point x="150" y="750" type="curve" smooth="yes"/>
      <point x="25" y="750" type="line"/>
      <point x="25" y="266" type="line"/>
      <point x="150" y="266" type="line" smooth="yes"/>
      <point x="239" y="266"/>
      <point x="275" y="312"/>
    </contour>
    <contour>
      <point x="125" y="666" type="line"/>
      <point x="150" y="666" type="line" smooth="yes"/>
      <point x="167" y="666"/>
      <point x="175" y="655"/>
      <point x="175" y="641" type="curve" smooth="yes"/>
      <point x="175" y="375" type="line" smooth="yes"/>
      <point x="175" y="361"/>
      <point x="167" y="350"/>
      <point x="150" y="350" type="curve" smooth="yes"/>
      <point x="125" y="350" type="line"/>
    </contour>
    <contour>
      <point x="25" y="0" type="line"/>
      <point x="125" y="0" type="line"/>
      <point x="125" y="266" type="line"/>
      <point x="25" y="266" type="line"/>
    </contour>
  </outline>
  <guideline angle="90" x="175" y="0"/>
  <guideline angle="90" x="275" y="0"/>
</glyph>
<glyph name="S" format="2">
  <advance width="290"/>
  <unicode hex="0053"/>
  <outline>
    <contour>
      <point x="270" y="479" type="line"/>
      <point x="270" y="635" type="line" smooth="yes"/>
      <point x="270" y="714"/>
      <point x="234" y="760"/>
      <point x="145" y="760" type="curve" smooth="yes"/>
      <point x="56" y="760"/>
      <point x="20" y="714"/>
      <point x="20" y="635" type="curve" smooth="yes"/>
      <point x="20" y="513" type="line" smooth="yes"/>
      <point x="20" y="483"/>
      <point x="32" y="453"/>
      <point x="46" y="437" type="curve"/>
      <point x="164" y="287" type="line" smooth="yes"/>
      <point x="167" y="283"/>
      <point x="170" y="278"/>
      <point x="170" y="271" type="curve" smooth="yes"/>
      <point x="170" y="105" type="line" smooth="yes"/>
      <point x="170" y="91"/>
      <point x="162" y="80"/>
      <point x="145" y="80" type="curve" smooth="yes"/>
      <point x="128" y="80"/>
      <point x="120" y="91"/>
      <point x="120" y="105" type="curve" smooth="yes"/>
      <point x="120" y="300" type="line"/>
      <point x="20" y="300" type="line"/>
      <point x="20" y="115" type="line" smooth="yes"/>
      <point x="20" y="36"/>
      <point x="56" y="-10"/>
      <point x="145" y="-10" type="curve" smooth="yes"/>
      <point x="234" y="-10"/>
      <point x="270" y="36"/>
      <point x="270" y="115" type="curve" smooth="yes"/>
      <point x="270" y="266" type="line" smooth="yes"/>
      <point x="270" y="298"/>
      <point x="261" y="323"/>
      <point x="244" y="343" type="curve"/>
      <point x="126" y="493" type="line"/>
      <point x="123" y="496"/>
      <point x="120" y="502"/>
      <point x="120" y="508" type="curve" smooth="yes"/>
      <point x="120" y="645" type="line" smooth="yes"/>
      <point x="120" y="659"/>
      <point x="128" y="670"/>
      <point x="145" y="670" type="curve" smooth="yes"/>
      <point x="162" y="670"/>
      <point x="170" y="659"/>
      <point x="170" y="645" type="curve" smooth="yes"/>
      <point x="170" y="479" type="line"/>
    </contour>
  </outline>
  <guideline angle="0" x="0" y="625"/>
  <guideline angle="0" x="0" y="635"/>
  <guideline angle="0" x="0" y="105"/>
  <guideline angle="0" x="0" y="115"/>
</glyph>
<glyph name="T" format="2">
  <advance width="240"/>
  <unicode hex="0054"/>
  <outline>
    <contour>
      <point x="70" y="0" type="line"/>
      <point x="170" y="0" type="line"/>
      <point x="170" y="750" type="line"/>
      <point x="70" y="750" type="line"/>
    </contour>
    <contour>
      <point x="170" y="666" type="line"/>
      <point x="235" y="666" type="line"/>
      <point x="235" y="750" type="line"/>
      <point x="170" y="750" type="line"/>
    </contour>
    <contour>
      <point x="5" y="666" type="line"/>
      <point x="70" y="666" type="line"/>
      <point x="70" y="750" type="line"/>
      <point x="5" y="750" type="line"/>
    </contour>
  </outline>
</glyph>
<glyph name="U" format="2">
  <advance width="300"/>
  <unicode hex="0055"/>
  <outline>
    <contour>
      <point x="175" y="750" type="line"/>
      <point x="175" y="105" type="line" smooth="yes"/>
      <point x="175" y="91"/>
      <point x="167" y="80"/>
      <point x="150" y="80" type="curve" smooth="yes"/>
      <point x="133" y="80"/>
      <point x="125" y="91"/>
      <point x="125" y="105" type="curve" smooth="yes"/>
      <point x="125" y="750" type="line"/>
      <point x="25" y="750" type="line"/>
      <point x="25" y="115" type="line" smooth="yes"/>
      <point x="25" y="36"/>
      <point x="61" y="-10"/>
      <point x="150" y="-10" type="curve" smooth="yes"/>
      <point x="239" y="-10"/>
      <point x="275" y="36"/>
      <point x="275" y="115" type="curve" smooth="yes"/>
      <point x="275" y="750" type="line"/>
    </contour>
  </outline>
</glyph>
<glyph name="V" format="2">
  <advance width="280"/>
  <unicode hex="0056"/>
  <outline>
    <contour>
      <point x="75" y="0" type="line"/>
      <point x="205" y="0" type="line"/>
      <point x="280" y="750" type="line"/>
      <point x="181" y="750" type="line"/>
      <point x="168" y="570" type="line" smooth="yes"/>
      <point x="156" y="401"/>
      <point x="142" y="131"/>
      <point x="142" y="131" type="curve"/>
      <point x="140" y="131" type="line"/>
      <point x="140" y="131"/>
      <point x="126" y="400"/>
      <point x="114" y="570" type="curve" smooth="yes"/>
      <point x="101" y="750" type="line"/>
      <point x="0" y="750" type="line"/>
    </contour>
  </outline>
  <guideline angle="0" x="0" y="176"/>
  <guideline angle="90" x="140" y="0"/>
</glyph>
<glyph name="W" format="2">
  <advance width="380"/>
  <unicode hex="0057"/>
  <outline>
    <contour>
      <point x="250" y="0" type="line"/>
      <point x="340" y="0" type="line"/>
      <point x="365" y="750" type="line"/>
      <point x="265" y="750" type="line"/>
      <point x="269" y="375" type="line" smooth="yes"/>
      <point x="269" y="343"/>
      <point x="270" y="280"/>
      <point x="270" y="280" type="curve"/>
      <point x="268" y="280" type="line"/>
      <point x="268" y="280"/>
      <point x="266" y="323"/>
      <point x="263" y="347" type="curve" smooth="yes"/>
      <point x="230" y="600" type="line"/>
      <point x="150" y="600" type="line"/>
      <point x="117" y="347" type="line" smooth="yes"/>
      <point x="114" y="323"/>
      <point x="112" y="280"/>
      <point x="112" y="280" type="curve"/>
      <point x="110" y="280" type="line"/>
      <point x="110" y="280"/>
      <point x="111" y="343"/>
      <point x="111" y="375" type="curve" smooth="yes"/>
      <point x="115" y="750" type="line"/>
      <point x="15" y="750" type="line"/>
      <point x="40" y="0" type="line"/>
      <point x="130" y="0" type="line"/>
      <point x="184" y="335" type="line"/>
      <point x="188" y="357"/>
      <point x="189" y="410"/>
      <point x="189" y="410" type="curve"/>
      <point x="191" y="410" type="line"/>
      <point x="191" y="410"/>
      <point x="192" y="357"/>
      <point x="196" y="335" type="curve"/>
    </contour>
  </outline>
  <guideline angle="0" x="0" y="280"/>
  <guideline angle="0" x="0" y="460"/>
  <guideline angle="0" x="0" y="217"/>
  <guideline angle="0" x="0" y="167"/>
</glyph>
<glyph name="X" format="2">
  <advance width="300"/>
  <unicode hex="0058"/>
  <outline>
    <contour>
      <point x="290" y="750" type="line"/>
      <point x="190" y="750" type="line"/>
      <point x="163" y="591" type="line" smooth="yes"/>
      <point x="156" y="551"/>
      <point x="151" y="472"/>
      <point x="151" y="472" type="curve"/>
      <point x="149" y="472" type="line"/>
      <point x="149" y="472"/>
      <point x="144" y="551"/>
      <point x="137" y="591" type="curve" smooth="yes"/>
      <point x="110" y="750" type="line"/>
      <point x="10" y="750" type="line"/>
      <point x="80" y="394" type="line"/>
      <point x="0" y="0" type="line"/>
      <point x="100" y="0" type="line"/>
      <point x="137" y="213" type="line" smooth="yes"/>
      <point x="143" y="249"/>
      <point x="149" y="317"/>
      <point x="149" y="317" type="curve"/>
      <point x="151" y="317" type="line"/>
      <point x="151" y="317"/>
      <point x="157" y="249"/>
      <point x="163" y="213" type="curve" smooth="yes"/>
      <point x="200" y="0" type="line"/>
      <point x="300" y="0" type="line"/>
      <point x="220" y="394" type="line"/>
    </contour>
  </outline>
  <guideline angle="0" x="0" y="591"/>
  <guideline angle="0" x="0" y="213"/>
  <guideline angle="0" x="0" y="468"/>
  <guideline angle="0" x="0" y="320"/>
  <guideline angle="0" x="0" y="740"/>
  <guideline angle="90" x="30" y="0"/>
  <guideline angle="90" x="270" y="0"/>
</glyph>
<glyph name="Y" format="2">
  <advance width="270"/>
  <unicode hex="0059"/>
  <outline>
    <contour>
      <point x="85" y="0" type="line"/>
      <point x="185" y="0" type="line"/>
      <point x="185" y="190" type="line"/>
      <point x="270" y="750" type="line"/>
      <point x="171" y="750" type="line"/>
      <point x="146" y="497" type="line" smooth="yes"/>
      <point x="143" y="470"/>
      <point x="137" y="373"/>
      <point x="137" y="373" type="curve"/>
      <point x="135" y="373" type="line"/>
      <point x="135" y="373"/>
      <point x="129" y="470"/>
      <point x="126" y="497" type="curve" smooth="yes"/>
      <point x="101" y="750" type="line"/>
      <point x="0" y="750" type="line"/>
      <point x="85" y="190" type="line"/>
    </contour>
  </outline>
  <guideline angle="0" x="0" y="517"/>
  <guideline angle="0" x="0" y="490"/>
  <guideline angle="0" x="0" y="325"/>
  <guideline angle="90" x="135" y="0"/>
</glyph>
<glyph name="Z" format="2">
  <advance width="230"/>
  <unicode hex="005A"/>
  <outline>
    <contour>
      <point x="10" y="666" type="line"/>
      <point x="117" y="666" type="line"/>
      <point x="220" y="676" type="line"/>
      <point x="220" y="750" type="line"/>
      <point x="10" y="750" type="line"/>
    </contour>
    <contour>
      <point x="5" y="0" type="line"/>
      <point x="225" y="0" type="line"/>
      <point x="225" y="84" type="line"/>
      <point x="108" y="84" type="line"/>
      <point x="5" y="74" type="line"/>
    </contour>
    <contour>
      <point x="5" y="74" type="line"/>
      <point x="108" y="84" type="line"/>
      <point x="220" y="676" type="line"/>
      <point x="117" y="666" type="line"/>
    </contour>
  </outline>
  <guideline angle="90" x="190" y="0"/>
  <guideline angle="90" x="40" y="0"/>
</glyph>
<glyph name="bracketleft" format="2">
  <advance width="194"/>
  <unicode hex="005B"/>
  <outline>
    <contour>
      <point x="184" y="760" type="line"/>
      <point x="25" y="760" type="line"/>
      <point x="25" y="-20" type="line"/>
      <point x="184" y="-20" type="line"/>
      <point x="184" y="35" type="line"/>
      <point x="125" y="35" type="line"/>
      <point x="125" y="705" type="line"/>
      <point x="184" y="705" type="line"/>
    </contour>
  </outline>
</glyph>
<glyph name="grave" format="2">
  <advance width="300"/>
  <unicode hex="0060"/>
  <outline>
    <contour>
      <point x="250" y="670" type="line"/>
      <point x="50" y="670" type="line"/>
      <point x="50" y="760" type="line"/>
      <point x="250" y="720" type="line"/>
    </contour>
  </outline>
  <guideline angle="90" x="35" y="0"/>
  <guideline angle="90" x="235" y="0"/>
</glyph>
<glyph name="braceleft" format="2">
  <advance width="182"/>
  <unicode hex="007B"/>
  <outline>
    <contour>
      <point x="172" y="760" type="line"/>
      <point x="133" y="760" type="line" smooth="yes"/>
      <point x="79" y="760"/>
      <point x="43" y="722"/>
      <point x="43" y="665" type="curve" smooth="yes"/>
      <point x="43" y="436" type="line" smooth="yes"/>
      <point x="43" y="413"/>
      <point x="31" y="397"/>
      <point x="13" y="397" type="curve" smooth="yes"/>
      <point x="-5" y="397" type="line"/>
      <point x="-5" y="343" type="line"/>
      <point x="13" y="343" type="line" smooth="yes"/>
      <point x="31" y="343"/>
      <point x="43" y="327"/>
      <point x="43" y="304" type="curve" smooth="yes"/>
      <point x="43" y="75" type="line" smooth="yes"/>
      <point x="43" y="18"/>
      <point x="79" y="-20"/>
      <point x="133" y="-20" type="curve" smooth="yes"/>
      <point x="172" y="-20" type="line"/>
      <point x="172" y="35" type="line"/>
      <point x="163" y="35" type="line" smooth="yes"/>
      <point x="151" y="35"/>
      <point x="143" y="43"/>
      <point x="143" y="55" type="curve" smooth="yes"/>
      <point x="143" y="273" type="line" smooth="yes"/>
      <point x="143" y="318"/>
      <point x="115" y="354"/>
      <point x="71" y="365" type="curve"/>
      <point x="71" y="375" type="line"/>
      <point x="116" y="387"/>
      <point x="143" y="422"/>
      <point x="143" y="467" type="curve" smooth="yes"/>
      <point x="143" y="685" type="line" smooth="yes"/>
      <point x="143" y="697"/>
      <point x="151" y="705"/>
      <point x="163" y="705" type="curve" smooth="yes"/>
      <point x="172" y="705" type="line"/>
    </contour>
  </outline>
</glyph>
<glyph name="bar" format="2">
  <advance width="150"/>
  <unicode hex="007C"/>
  <outline>
    <contour>
      <point x="25" y="-50" type="line"/>
      <point x="125" y="-50" type="line"/>
      <point x="125" y="800" type="line"/>
      <point x="25" y="800" type="line"/>
    </contour>
  </outline>
</glyph>
<glyph name="exclamdown" format="2">
  <advance width="150"/>
  <unicode hex="00A1"/>
  <outline>
    <contour>
      <point x="125" y="750" type="line"/>
      <point x="25" y="750" type="line"/>
      <point x="25" y="630" type="line"/>
      <point x="125" y="630" type="line"/>
    </contour>
    <contour>
      <point x="125" y="170" type="line"/>
      <point x="105" y="580" type="line"/>
      <point x="45" y="580" type="line"/>
      <point x="25" y="170" type="line"/>
      <point x="25" y="0" type="line"/>
      <point x="125" y="0" type="line"/>
    </contour>
  </outline>
</glyph>
<glyph name="cent" format="2">
  <advance width="300"/>
  <unicode hex="00A2"/>
  <outline>
    <component base="C.alt" yOffset="75"/>
    <contour>
      <point x="100" y="0" type="line"/>
      <point x="200" y="0" type="line"/>
      <point x="200" y="75" type="line"/>
      <point x="100" y="75" type="line"/>
    </contour>
    <contour>
      <point x="100" y="675" type="line"/>
      <point x="200" y="675" type="line"/>
      <point x="200" y="750" type="line"/>
      <point x="100" y="750" type="line"/>
    </contour>
  </outline>
</glyph>
<glyph name="sterling" format="2">
  <advance width="300"/>
  <unicode hex="00A3"/>
  <outline>
    <contour>
      <point x="125" y="0" type="line"/>
      <point x="125" y="645" type="line" smooth="yes"/>
      <point x="125" y="659"/>
      <point x="133" y="670"/>
      <point x="150" y="670" type="curve" smooth="yes"/>
      <point x="167" y="670"/>
      <point x="175" y="659"/>
      <point x="175" y="645" type="curve" smooth="yes"/>
      <point x="175" y="429" type="line"/>
      <point x="275" y="429" type="line"/>
      <point x="275" y="635" type="line" smooth="yes"/>
      <point x="275" y="714"/>
      <point x="239" y="760"/>
      <point x="150" y="760" type="curve" smooth="yes"/>
      <point x="61" y="760"/>
      <point x="25" y="714"/>
      <point x="25" y="635" type="curve" smooth="yes"/>
      <point x="25" y="0" type="line"/>
    </contour>
    <contour>
      <point x="75" y="0" type="line"/>
      <point x="275" y="0" type="line"/>
      <point x="275" y="84" type="line"/>
      <point x="75" y="84" type="line"/>
    </contour>
    <contour>
      <point x="75" y="280" type="line"/>
      <point x="245" y="280" type="line"/>
      <point x="245" y="364" type="line"/>
      <point x="75" y="364" type="line"/>
    </contour>
  </outline>
  <guideline angle="0" x="0" y="125"/>
  <guideline angle="90" x="25" y="0"/>
  <guideline angle="90" x="125" y="0"/>
  <guideline angle="90" x="218" y="0"/>
  <guideline angle="90" x="275" y="0"/>
</glyph>
<glyph name="brokenbar" format="2">
  <advance width="150"/>
  <unicode hex="00A6"/>
  <outline>
    <contour>
      <point x="25" y="445" type="line"/>
      <point x="125" y="445" type="line"/>
      <point x="125" y="800" type="line"/>
      <point x="25" y="800" type="line"/>
    </contour>
    <contour>
      <point x="125" y="295" type="line"/>
      <point x="25" y="295" type="line"/>
      <point x="25" y="-50" type="line"/>
      <point x="125" y="-50" type="line"/>
    </contour>
  </outline>
</glyph>
<glyph name="dieresis" format="2">
  <advance width="300"/>
  <unicode hex="00A8"/>
  <outline>
    <contour>
      <point x="35" y="660" type="line"/>
      <point x="135" y="660" type="line"/>
      <point x="135" y="750" type="line"/>
      <point x="35" y="750" type="line"/>
    </contour>
    <contour>
      <point x="265" y="750" type="line"/>
      <point x="165" y="750" type="line"/>
      <point x="165" y="660" type="line"/>
      <point x="265" y="660" type="line"/>
    </contour>
  </outline>
</glyph>
<glyph name="macron" format="2">
  <advance width="300"/>
  <unicode hex="00AF"/>
  <outline>
    <contour>
      <point x="50" y="680" type="line"/>
      <point x="50" y="730" type="line"/>
      <point x="250" y="730" type="line"/>
      <point x="250" y="680" type="line"/>
    </contour>
  </outline>
  <guideline angle="90" x="35" y="0"/>
  <guideline angle="90" x="235" y="0"/>
</glyph>
<glyph name="degree" format="2">
  <advance width="300"/>
  <unicode hex="00B0"/>
  <outline>
    <contour>
      <point x="15" y="625" type="curve" smooth="yes"/>
      <point x="15" y="544"/>
      <point x="69" y="490"/>
      <point x="150" y="490" type="curve" smooth="yes"/>
      <point x="231" y="490"/>
      <point x="285" y="544"/>
      <point x="285" y="625" type="curve" smooth="yes"/>
      <point x="285" y="706"/>
      <point x="231" y="760"/>
      <point x="150" y="760" type="curve" smooth="yes"/>
      <point x="69" y="760"/>
      <point x="15" y="706"/>
    </contour>
    <contour>
      <point x="105" y="625" type="curve" smooth="yes"/>
      <point x="105" y="655"/>
      <point x="123" y="675"/>
      <point x="150" y="675" type="curve" smooth="yes"/>
      <point x="177" y="675"/>
      <point x="195" y="655"/>
      <point x="195" y="625" type="curve" smooth="yes"/>
      <point x="195" y="595"/>
      <point x="177" y="575"/>
      <point x="150" y="575" type="curve" smooth="yes"/>
      <point x="123" y="575"/>
      <point x="105" y="595"/>
    </contour>
  </outline>
  <guideline angle="0" x="0" y="125"/>
  <guideline angle="90" x="25" y="0"/>
  <guideline angle="90" x="125" y="0"/>
  <guideline angle="90" x="175" y="0"/>
  <guideline angle="90" x="275" y="0"/>
  <guideline angle="0" x="0" y="625"/>
</glyph>
<glyph name="cedilla" format="2">
  <advance width="300"/>
  <unicode hex="00B8"/>
  <outline>
    <contour>
      <point x="120" y="75" type="line"/>
      <point x="180" y="75" type="line"/>
      <point x="180" y="150" type="line"/>
      <point x="120" y="150" type="line"/>
    </contour>
    <contour>
      <point x="140" y="130" type="curve"/>
      <point x="140" y="75" type="line"/>
      <point x="162" y="75"/>
      <point x="176" y="69"/>
      <point x="176" y="60" type="curve" smooth="yes"/>
      <point x="176" y="51"/>
      <point x="162" y="45"/>
      <point x="142.629" y="45" type="curve" smooth="yes"/>
      <point x="112" y="45"/>
      <point x="95" y="60"/>
      <point x="95" y="60" type="curve"/>
      <point x="70" y="15" type="line"/>
      <point x="70" y="15"/>
      <point x="98" y="-10"/>
      <point x="149" y="-10" type="curve" smooth="yes"/>
      <point x="202" y="-10"/>
      <point x="236" y="17"/>
      <point x="236" y="57.8324" type="curve" smooth="yes"/>
      <point x="236" y="101"/>
      <point x="198" y="130"/>
    </contour>
  </outline>
  <guideline angle="0" x="0" y="125"/>
  <guideline angle="90" x="22" y="0"/>
  <guideline angle="90" x="81" y="0"/>
  <guideline angle="90" x="172" y="0"/>
  <guideline angle="90" x="272" y="0"/>
</glyph>
<glyph name="questiondown" format="2">
  <advance width="290"/>
  <unicode hex="00BF"/>
  <outline>
    <contour>
      <point x="109" y="452" type="line"/>
      <point x="109" y="446"/>
      <point x="106" y="439"/>
      <point x="102" y="434" type="curve" smooth="yes"/>
      <point x="46" y="363" type="line"/>
      <point x="32" y="347"/>
      <point x="20" y="317"/>
      <point x="20" y="287" type="curve" smooth="yes"/>
      <point x="20" y="115" type="line" smooth="yes"/>
      <point x="20" y="36"/>
      <point x="56" y="-10"/>
      <point x="145" y="-10" type="curve" smooth="yes"/>
      <point x="234" y="-10"/>
      <point x="270" y="36"/>
      <point x="270" y="115" type="curve" smooth="yes"/>
      <point x="270" y="271" type="line"/>
      <point x="170" y="271" type="line"/>
      <point x="170" y="105" type="line" smooth="yes"/>
      <point x="170" y="91"/>
      <point x="162" y="80"/>
      <point x="145" y="80" type="curve" smooth="yes"/>
      <point x="128" y="80"/>
      <point x="120" y="91"/>
      <point x="120" y="105" type="curve" smooth="yes"/>
      <point x="120" y="292" type="line" smooth="yes"/>
      <point x="120" y="298"/>
      <point x="123" y="304"/>
      <point x="126" y="307" type="curve"/>
      <point x="154" y="342" type="line" smooth="yes"/>
      <point x="173" y="366"/>
      <point x="183" y="401"/>
      <point x="182" y="431" type="curve" smooth="yes"/>
      <point x="175" y="580" type="line"/>
      <point x="115" y="580" type="line"/>
    </contour>
    <contour>
      <point x="195" y="750" type="line"/>
      <point x="95" y="750" type="line"/>
      <point x="95" y="630" type="line"/>
      <point x="195" y="630" type="line"/>
    </contour>
  </outline>
  <guideline angle="0" x="0" y="625"/>
  <guideline angle="0" x="0" y="635"/>
  <guideline angle="0" x="0" y="105"/>
  <guideline angle="0" x="0" y="115"/>
  <guideline angle="90" x="145" y="0"/>
</glyph>
<glyph name="Igrave" format="2">
  <advance width="150"/>
  <unicode hex="00CC"/>
  <outline>
    <component base="I.alt"/>
    <contour>
      <point x="150" y="670" type="line"/>
      <point x="0" y="670" type="line"/>
      <point x="0" y="760" type="line"/>
      <point x="150" y="720" type="line"/>
    </contour>
  </outline>
  <guideline angle="90" x="50" y="0"/>
  <guideline angle="90" x="250" y="0"/>
  <guideline angle="90" x="80" y="0"/>
  <guideline angle="90" x="150" y="0"/>
  <guideline angle="90" x="-40" y="0"/>
  <guideline angle="90" x="160" y="0"/>
</glyph>
<glyph name="Iacute" format="2">
  <advance width="150"/>
  <unicode hex="00CD"/>
  <outline>
    <component base="I.alt"/>
    <contour>
      <point x="0" y="670" type="line"/>
      <point x="0" y="720" type="line"/>
      <point x="150" y="760" type="line"/>
      <point x="150" y="670" type="line"/>
    </contour>
  </outline>
  <guideline angle="90" x="25" y="0"/>
  <guideline angle="90" x="225" y="0"/>
  <guideline angle="90" x="55" y="0"/>
  <guideline angle="90" x="125" y="0"/>
  <guideline angle="90" x="-40" y="0"/>
  <guideline angle="90" x="160" y="0"/>
</glyph>
<glyph name="Icircumflex" format="2">
  <advance width="150"/>
  <unicode hex="00CE"/>
  <outline>
    <component base="I.alt"/>
    <contour>
      <point x="0" y="665" type="line"/>
      <point x="75" y="690" type="line"/>
      <point x="150" y="665" type="line"/>
      <point x="150" y="720" type="line"/>
      <point x="75" y="760" type="line"/>
      <point x="0" y="720" type="line"/>
    </contour>
  </outline>
  <guideline angle="90" x="-25" y="0"/>
  <guideline angle="90" x="175" y="0"/>
  <guideline angle="90" x="75" y="0"/>
  <guideline angle="90" x="-25" y="0"/>
  <guideline angle="90" x="175" y="0"/>
  <guideline angle="90" x="75" y="0"/>
</glyph>
<glyph name="Idieresis" format="2">
  <advance width="150"/>
  <unicode hex="00CF"/>
  <outline>
    <component base="I.alt"/>
    <contour>
      <point x="-15" y="660" type="line"/>
      <point x="60" y="660" type="line"/>
      <point x="60" y="750" type="line"/>
      <point x="-15" y="750" type="line"/>
    </contour>
    <contour>
      <point x="165" y="750" type="line"/>
      <point x="90" y="750" type="line"/>
      <point x="90" y="660" type="line"/>
      <point x="165" y="660" type="line"/>
    </contour>
  </outline>
</glyph>
<glyph name="Oslash" format="2">
  <advance width="300"/>
  <unicode hex="00D8"/>
  <outline>
    <component base="O"/>
    <contour>
      <point x="6" y="6" type="line"/>
      <point x="256" y="756" type="line"/>
      <point x="294" y="744" type="line"/>
      <point x="44" y="-6" type="line"/>
    </contour>
  </outline>
  <guideline angle="0" x="0" y="125"/>
  <guideline angle="90" x="25" y="0"/>
  <guideline angle="90" x="125" y="0"/>
  <guideline angle="90" x="175" y="0"/>
  <guideline angle="90" x="275" y="0"/>
</glyph>
<glyph name="Thorn" format="2">
  <advance width="300"/>
  <unicode hex="00DE"/>
  <outline>
    <contour>
      <point x="275" y="246" type="curve"/>
      <point x="275" y="500" type="line" smooth="yes"/>
      <point x="275" y="579"/>
      <point x="239" y="625"/>
      <point x="150" y="625" type="curve" smooth="yes"/>
      <point x="25" y="625" type="line"/>
      <point x="25" y="121" type="line"/>
      <point x="150" y="121" type="line" smooth="yes"/>
      <point x="239" y="121"/>
      <point x="275" y="167"/>
    </contour>
    <contour>
      <point x="125" y="541" type="line"/>
      <point x="150" y="541" type="line" smooth="yes"/>
      <point x="167" y="541"/>
      <point x="175" y="530"/>
      <point x="175" y="516" type="curve" smooth="yes"/>
      <point x="175" y="230" type="line" smooth="yes"/>
      <point x="175" y="216"/>
      <point x="167" y="205"/>
      <point x="150" y="205" type="curve" smooth="yes"/>
      <point x="125" y="205" type="line"/>
    </contour>
    <contour>
      <point x="25" y="0" type="line"/>
      <point x="125" y="0" type="line"/>
      <point x="125" y="121" type="line"/>
      <point x="25" y="121" type="line"/>
    </contour>
    <contour>
      <point x="25" y="625" type="line"/>
      <point x="125" y="625" type="line"/>
      <point x="125" y="750" type="line"/>
      <point x="25" y="750" type="line"/>
    </contour>
  </outline>
  <guideline angle="90" x="55" y="0"/>
  <guideline angle="90" x="95" y="0"/>
</glyph>
<glyph name="Hbar" format="2">
  <advance width="300"/>
  <unicode hex="0126"/>
  <outline>
    <component base="H.alt"/>
    <contour>
      <point x="0" y="470" type="line"/>
      <point x="0" y="520" type="line"/>
      <point x="300" y="520" type="line"/>
      <point x="300" y="470" type="line"/>
    </contour>
  </outline>
  <guideline angle="90" x="35" y="0"/>
  <guideline angle="90" x="235" y="0"/>
  <guideline angle="90" x="35" y="0"/>
  <guideline angle="90" x="235" y="0"/>
</glyph>
<glyph name="OE" format="2">
  <advance width="390"/>
  <unicode hex="0152"/>
  <outline>
    <contour>
      <point x="125" y="-10" type="curve" smooth="yes"/>
      <point x="196" y="-10"/>
      <point x="225" y="36"/>
      <point x="225" y="115" type="curve" smooth="yes"/>
      <point x="225" y="635" type="line" smooth="yes"/>
      <point x="225" y="714"/>
      <point x="196" y="760"/>
      <point x="125" y="760" type="curve" smooth="yes"/>
      <point x="54" y="760"/>
      <point x="25" y="714"/>
      <point x="25" y="635" type="curve" smooth="yes"/>
      <point x="25" y="115" type="line" smooth="yes"/>
      <point x="25" y="36"/>
      <point x="54" y="-10"/>
    </contour>
    <contour>
      <point x="125" y="645" type="line" smooth="yes"/>
      <point x="125" y="659"/>
      <point x="133" y="670"/>
      <point x="150" y="670" type="curve" smooth="yes"/>
      <point x="167" y="670"/>
      <point x="175" y="659"/>
      <point x="175" y="645" type="curve" smooth="yes"/>
      <point x="175" y="105" type="line" smooth="yes"/>
      <point x="175" y="91"/>
      <point x="167" y="80"/>
      <point x="150" y="80" type="curve" smooth="yes"/>
      <point x="133" y="80"/>
      <point x="125" y="91"/>
      <point x="125" y="105" type="curve" smooth="yes"/>
    </contour>
    <contour>
      <point x="175" y="0" type="line"/>
      <point x="275" y="0" type="line"/>
      <point x="275" y="750" type="line"/>
      <point x="175" y="750" type="line"/>
    </contour>
    <contour>
      <point x="275" y="666" type="line"/>
      <point x="375" y="666" type="line"/>
      <point x="375" y="750" type="line"/>
      <point x="275" y="750" type="line"/>
    </contour>
    <contour>
      <point x="275" y="0" type="line"/>
      <point x="375" y="0" type="line"/>
      <point x="375" y="84" type="line"/>
      <point x="275" y="84" type="line"/>
    </contour>
    <contour>
      <point x="245" y="350" type="line"/>
      <point x="350" y="350" type="line"/>
      <point x="350" y="434" type="line"/>
      <point x="245" y="434" type="line"/>
    </contour>
  </outline>
  <guideline angle="0" x="0" y="125"/>
  <guideline angle="90" x="25" y="0"/>
  <guideline angle="90" x="125" y="0"/>
  <guideline angle="90" x="175" y="0"/>
  <guideline angle="90" x="275" y="0"/>
  <guideline angle="0" x="0" y="387"/>
  <guideline angle="0" x="0" y="125"/>
  <guideline angle="90" x="25" y="0"/>
  <guideline angle="90" x="125" y="0"/>
  <guideline angle="90" x="175" y="0"/>
  <guideline angle="90" x="275" y="0"/>
  <guideline angle="0" x="0" y="387"/>
</glyph>
<glyph name="circumflex" format="2">
  <advance width="300"/>
  <unicode hex="02C6"/>
  <outline>
    <contour>
      <point x="125" y="755" type="line"/>
      <point x="175" y="755" type="line"/>
      <point x="250" y="720" type="line"/>
      <point x="227" y="660" type="line"/>
      <point x="150" y="685" type="line"/>
      <point x="73" y="660" type="line"/>
      <point x="50" y="720" type="line"/>
    </contour>
  </outline>
  <guideline angle="90" x="50" y="0"/>
  <guideline angle="90" x="250" y="0"/>
  <guideline angle="90" x="150" y="0"/>
</glyph>
<glyph name="caron" format="2">
  <advance width="300"/>
  <unicode hex="02C7"/>
  <outline>
    <contour>
      <point x="50" y="700" type="line"/>
      <point x="125" y="665" type="line"/>
      <point x="175" y="665" type="line"/>
      <point x="250" y="700" type="line"/>
      <point x="227" y="760" type="line"/>
      <point x="150" y="735" type="line"/>
      <point x="73" y="760" type="line"/>
    </contour>
  </outline>
  <guideline angle="90" x="140" y="0"/>
</glyph>
<glyph name="breve" format="2">
  <advance width="300"/>
  <unicode hex="02D8"/>
  <outline>
    <contour>
      <point x="50" y="755" type="line"/>
      <point x="50" y="701"/>
      <point x="90" y="665"/>
      <point x="150" y="665" type="curve" smooth="yes"/>
      <point x="210" y="665"/>
      <point x="250" y="701"/>
      <point x="250" y="755" type="curve"/>
      <point x="180" y="755" type="line"/>
      <point x="180" y="737"/>
      <point x="168" y="725"/>
      <point x="150" y="725" type="curve" smooth="yes"/>
      <point x="132" y="725"/>
      <point x="120" y="737"/>
      <point x="120" y="755" type="curve"/>
    </contour>
  </outline>
  <guideline angle="90" x="140" y="0"/>
</glyph>
<glyph name="dotaccent" format="2">
  <advance width="300"/>
  <unicode hex="02D9"/>
  <outline>
    <contour>
      <point x="100" y="710" type="curve" smooth="yes"/>
      <point x="100" y="680"/>
      <point x="120" y="660"/>
      <point x="150" y="660" type="curve" smooth="yes"/>
      <point x="180" y="660"/>
      <point x="200" y="680"/>
      <point x="200" y="710" type="curve" smooth="yes"/>
      <point x="200" y="740"/>
      <point x="180" y="760"/>
      <point x="150" y="760" type="curve" smooth="yes"/>
      <point x="120" y="760"/>
      <point x="100" y="740"/>
    </contour>
  </outline>
  <guideline angle="90" x="25" y="0"/>
  <guideline angle="90" x="225" y="0"/>
  <guideline angle="90" x="125" y="0"/>
</glyph>
<glyph name="ring" format="2">
  <advance width="300"/>
  <unicode hex="02DA"/>
  <outline>
    <contour>
      <point x="80" y="700" type="curve" smooth="yes"/>
      <point x="80" y="658"/>
      <point x="108" y="630"/>
      <point x="150" y="630" type="curve" smooth="yes"/>
      <point x="192" y="630"/>
      <point x="220" y="658"/>
      <point x="220" y="700" type="curve" smooth="yes"/>
      <point x="220" y="742"/>
      <point x="192" y="770"/>
      <point x="150" y="770" type="curve" smooth="yes"/>
      <point x="108" y="770"/>
      <point x="80" y="742"/>
    </contour>
    <contour>
      <point x="122" y="700" type="curve" smooth="yes"/>
      <point x="122" y="718"/>
      <point x="134" y="730"/>
      <point x="151" y="730" type="curve" smooth="yes"/>
      <point x="167" y="730"/>
      <point x="178" y="718"/>
      <point x="178" y="700" type="curve" smooth="yes"/>
      <point x="178" y="682"/>
      <point x="167" y="670"/>
      <point x="151" y="670" type="curve" smooth="yes"/>
      <point x="134" y="670"/>
      <point x="122" y="682"/>
    </contour>
  </outline>
  <guideline angle="90" x="25" y="0"/>
  <guideline angle="90" x="225" y="0"/>
  <guideline angle="90" x="125" y="0"/>
</glyph>
<glyph name="ogonek" format="2">
  <advance width="300"/>
  <unicode hex="02DB"/>
  <outline>
    <contour>
      <point x="102" y="73.6191" type="curve" smooth="yes"/>
      <point x="102" y="23"/>
      <point x="140" y="-10"/>
      <point x="198" y="-10" type="curve"/>
      <point x="198" y="70" type="line"/>
      <point x="179" y="70"/>
      <point x="167" y="82"/>
      <point x="167" y="101.292" type="curve" smooth="yes"/>
      <point x="167" y="118"/>
      <point x="176" y="138"/>
      <point x="190" y="150" type="curve"/>
      <point x="160" y="180" type="line"/>
      <point x="125" y="156"/>
      <point x="102" y="113"/>
    </contour>
  </outline>
</glyph>
<glyph name="tilde" format="2">
  <advance width="300"/>
  <unicode hex="02DC"/>
  <outline>
    <contour>
      <point x="50" y="670" type="line"/>
      <point x="50" y="670"/>
      <point x="80" y="685"/>
      <point x="110" y="685" type="curve"/>
      <point x="140" y="685"/>
      <point x="160" y="670"/>
      <point x="190" y="670" type="curve"/>
      <point x="220" y="670"/>
      <point x="250" y="685"/>
      <point x="250" y="685" type="curve"/>
      <point x="250" y="750" type="line"/>
      <point x="250" y="750"/>
      <point x="220" y="735"/>
      <point x="190" y="735" type="curve"/>
      <point x="160" y="735"/>
      <point x="140" y="750"/>
      <point x="110" y="750" type="curve"/>
      <point x="80" y="750"/>
      <point x="50" y="735"/>
      <point x="50" y="735" type="curve"/>
    </contour>
  </outline>
  <guideline angle="90" x="35" y="0"/>
  <guideline angle="90" x="235" y="0"/>
  <guideline angle="90" x="150" y="0"/>
</glyph>
<glyph name="hungarumlaut" format="2">
  <advance width="300"/>
  <unicode hex="02DD"/>
  <outline>
    <contour>
      <point x="30" y="670" type="line"/>
      <point x="30" y="720" type="line"/>
      <point x="140" y="760" type="line"/>
      <point x="140" y="670" type="line"/>
    </contour>
    <contour>
      <point x="160" y="670" type="line"/>
      <point x="160" y="720" type="line"/>
      <point x="270" y="760" type="line"/>
      <point x="270" y="670" type="line"/>
    </contour>
  </outline>
  <guideline angle="90" x="35" y="0"/>
  <guideline angle="90" x="235" y="0"/>
</glyph>
<glyph name="commaaccent" format="2">
  <advance width="300"/>
  <unicode hex="0326"/>
  <outline>
    <contour>
      <point x="110" y="0" type="line"/>
      <point x="180" y="0" type="line"/>
      <point x="190" y="100" type="line"/>
      <point x="110" y="100" type="line"/>
    </contour>
  </outline>
</glyph>
<glyph name="Delta" format="2">
  <advance width="280"/>
  <unicode hex="0394"/>
  <outline>
    <contour>
      <point x="82" y="0" type="line"/>
      <point x="202" y="0" type="line"/>
      <point x="202" y="84" type="line"/>
      <point x="82" y="84" type="line"/>
    </contour>
    <contour>
      <point x="205" y="750" type="line"/>
      <point x="75" y="750" type="line"/>
      <point x="0" y="0" type="line"/>
      <point x="99" y="0" type="line"/>
      <point x="112" y="180" type="line" smooth="yes"/>
      <point x="124" y="349"/>
      <point x="138" y="619"/>
      <point x="138" y="619" type="curve"/>
      <point x="140" y="619" type="line"/>
      <point x="140" y="619"/>
      <point x="154" y="350"/>
      <point x="166" y="180" type="curve" smooth="yes"/>
      <point x="179" y="0" type="line"/>
      <point x="280" y="0" type="line"/>
    </contour>
  </outline>
</glyph>
<glyph name="quoteleft" format="2">
  <advance width="150"/>
  <unicode hex="2018"/>
  <outline>
    <contour>
      <point x="125" y="660" type="line"/>
      <point x="90" y="660" type="line"/>
      <point x="115" y="750" type="line"/>
      <point x="65" y="750" type="line"/>
      <point x="25" y="650" type="line"/>
      <point x="25" y="540" type="line"/>
      <point x="125" y="540" type="line"/>
    </contour>
  </outline>
</glyph>
<glyph name="quoteright" format="2">
  <advance width="150"/>
  <unicode hex="2019"/>
  <outline>
    <contour>
      <point x="25" y="630" type="line"/>
      <point x="60" y="630" type="line"/>
      <point x="35" y="540" type="line"/>
      <point x="85" y="540" type="line"/>
      <point x="125" y="640" type="line"/>
      <point x="125" y="750" type="line"/>
      <point x="25" y="750" type="line"/>
    </contour>
  </outline>
</glyph>
<glyph name="quotesinglbase" format="2">
  <advance width="150"/>
  <unicode hex="201A"/>
  <outline>
    <contour>
      <point x="25" y="90" type="line"/>
      <point x="60" y="90" type="line"/>
      <point x="35" y="0" type="line"/>
      <point x="85" y="0" type="line"/>
      <point x="125" y="100" type="line"/>
      <point x="125" y="210" type="line"/>
      <point x="25" y="210" type="line"/>
    </contour>
  </outline>
</glyph>
<glyph name="dagger" format="2">
  <advance width="340"/>
  <unicode hex="2020"/>
  <outline>
    <contour>
      <point x="120" y="0" type="line"/>
      <point x="220" y="0" type="line"/>
      <point x="220" y="750" type="line"/>
      <point x="120" y="750" type="line"/>
    </contour>
    <contour>
      <point x="220" y="531" type="line"/>
      <point x="320" y="531" type="line"/>
      <point x="320" y="615" type="line"/>
      <point x="220" y="615" type="line"/>
    </contour>
    <contour>
      <point x="20" y="531" type="line"/>
      <point x="120" y="531" type="line"/>
      <point x="120" y="615" type="line"/>
      <point x="20" y="615" type="line"/>
    </contour>
  </outline>
</glyph>
<glyph name="daggerdbl" format="2">
  <advance width="340"/>
  <unicode hex="2021"/>
  <outline>
    <contour>
      <point x="120" y="0" type="line"/>
      <point x="220" y="0" type="line"/>
      <point x="220" y="750" type="line"/>
      <point x="120" y="750" type="line"/>
    </contour>
    <contour>
      <point x="220" y="531" type="line"/>
      <point x="320" y="531" type="line"/>
      <point x="320" y="615" type="line"/>
      <point x="220" y="615" type="line"/>
    </contour>
    <contour>
      <point x="20" y="531" type="line"/>
      <point x="120" y="531" type="line"/>
      <point x="120" y="615" type="line"/>
      <point x="20" y="615" type="line"/>
    </contour>
    <contour>
      <point x="220" y="135" type="line"/>
      <point x="320" y="135" type="line"/>
      <point x="320" y="219" type="line"/>
      <point x="220" y="219" type="line"/>
    </contour>
    <contour>
      <point x="20" y="135" type="line"/>
      <point x="120" y="135" type="line"/>
      <point x="120" y="219" type="line"/>
      <point x="20" y="219" type="line"/>
    </contour>
  </outline>
</glyph>
<glyph name="product" format="2">
  <advance width="300"/>
  <unicode hex="220F"/>
  <outline>
    <contour>
      <point x="25" y="0" type="line"/>
      <point x="125" y="0" type="line"/>
      <point x="125" y="666" type="line"/>
      <point x="175" y="666" type="line"/>
      <point x="175" y="0" type="line"/>
      <point x="275" y="0" type="line"/>
      <point x="275" y="750" type="line"/>
      <point x="25" y="750" type="line"/>
    </contour>
  </outline>
</glyph>
<glyph name="summation" format="2">
  <advance width="230"/>
  <unicode hex="2211"/>
  <outline>
    <contour>
      <point x="5" y="74" type="line"/>
      <point x="5" y="0" type="line"/>
      <point x="225" y="0" type="line"/>
      <point x="225" y="84" type="line"/>
      <point x="112" y="84" type="line"/>
      <point x="188" y="347" type="line"/>
      <point x="188" y="428" type="line"/>
      <point x="117" y="666" type="line"/>
      <point x="220" y="666" type="line"/>
      <point x="220" y="750" type="line"/>
      <point x="10" y="750" type="line"/>
      <point x="10" y="676" type="line"/>
      <point x="94" y="388" type="line"/>
    </contour>
  </outline>
  <guideline angle="90" x="190" y="0"/>
  <guideline angle="90" x="40" y="0"/>
  <guideline angle="0" x="0" y="388"/>
</glyph>
<glyph name="minus" format="2">
  <advance width="300"/>
  <unicode hex="2212"/>
  <outline>
    <contour>
      <point x="25" y="340" type="line"/>
      <point x="275" y="340" type="line"/>
      <point x="275" y="424" type="line"/>
      <point x="25" y="424" type="line"/>
    </contour>
  </outline>
</glyph>
<glyph name="A.alt" format="2">
  <advance width="280"/>
  <outline>
    <contour>
      <point x="205" y="600" type="line"/>
      <point x="75" y="600" type="line"/>
      <point x="0" y="0" type="line"/>
      <point x="99" y="0" type="line"/>
      <point x="119" y="254" type="line" smooth="yes"/>
      <point x="125" y="325"/>
      <point x="138" y="479"/>
      <point x="138" y="479" type="curve"/>
      <point x="140" y="479" type="line"/>
      <point x="140" y="479"/>
      <point x="153" y="326"/>
      <point x="159" y="254" type="curve" smooth="yes"/>
      <point x="179" y="0" type="line"/>
      <point x="280" y="0" type="line"/>
    </contour>
    <contour>
      <point x="198" y="234" type="line"/>
      <point x="78" y="234" type="line"/>
      <point x="78" y="150" type="line"/>
      <point x="198" y="150" type="line"/>
    </contour>
  </outline>
  <guideline angle="90" x="25" y="0"/>
  <guideline angle="90" x="225" y="0"/>
</glyph>
<glyph name="B.alt" format="2">
  <advance width="300"/>
  <outline>
    <contour>
      <point x="275" y="125" type="curve"/>
      <point x="275" y="201" type="line" smooth="yes"/>
      <point x="275" y="280"/>
      <point x="239" y="326"/>
      <point x="150" y="326" type="curve" smooth="yes"/>
      <point x="25" y="326" type="line"/>
      <point x="25" y="0" type="line"/>
      <point x="150" y="0" type="line" smooth="yes"/>
      <point x="239" y="0"/>
      <point x="275" y="46"/>
    </contour>
    <contour>
      <point x="125" y="262" type="line"/>
      <point x="150" y="262" type="line" smooth="yes"/>
      <point x="167" y="262"/>
      <point x="175" y="251"/>
      <point x="175" y="237" type="curve" smooth="yes"/>
      <point x="175" y="109" type="line" smooth="yes"/>
      <point x="175" y="95"/>
      <point x="167" y="84"/>
      <point x="150" y="84" type="curve" smooth="yes"/>
      <point x="125" y="84" type="line"/>
    </contour>
    <contour>
      <point x="270" y="475" type="line" smooth="yes"/>
      <point x="270" y="554"/>
      <point x="234" y="600"/>
      <point x="145" y="600" type="curve" smooth="yes"/>
      <point x="25" y="600" type="line"/>
      <point x="25" y="276" type="line"/>
      <point x="145" y="276" type="line" smooth="yes"/>
      <point x="234" y="276"/>
      <point x="270" y="322"/>
      <point x="270" y="401" type="curve" smooth="yes"/>
    </contour>
    <contour>
      <point x="125" y="516" type="line"/>
      <point x="145" y="516" type="line" smooth="yes"/>
      <point x="162" y="516"/>
      <point x="170" y="505"/>
      <point x="170" y="491" type="curve" smooth="yes"/>
      <point x="170" y="370" type="line" smooth="yes"/>
      <point x="170" y="356"/>
      <point x="162" y="345"/>
      <point x="145" y="345" type="curve" smooth="yes"/>
      <point x="125" y="345" type="line"/>
    </contour>
  </outline>
</glyph>
<glyph name="D.alt" format="2">
  <advance width="300"/>
  <outline>
    <contour>
      <point x="275" y="125" type="curve"/>
      <point x="275" y="475" type="line" smooth="yes"/>
      <point x="275" y="554"/>
      <point x="239" y="600"/>
      <point x="150" y="600" type="curve" smooth="yes"/>
      <point x="25" y="600" type="line"/>
      <point x="25" y="0" type="line"/>
      <point x="150" y="0" type="line" smooth="yes"/>
      <point x="239" y="0"/>
      <point x="275" y="46"/>
    </contour>
    <contour>
      <point x="125" y="516" type="line"/>
      <point x="150" y="516" type="line" smooth="yes"/>
      <point x="167" y="516"/>
      <point x="175" y="505"/>
      <point x="175" y="491" type="curve" smooth="yes"/>
      <point x="175" y="109" type="line" smooth="yes"/>
      <point x="175" y="95"/>
      <point x="167" y="84"/>
      <point x="150" y="84" type="curve" smooth="yes"/>
      <point x="125" y="84" type="line"/>
    </contour>
  </outline>
  <guideline angle="0" x="0" y="125"/>
  <guideline angle="0" x="0" y="635"/>
  <guideline angle="90" x="25" y="0"/>
  <guideline angle="90" x="125" y="0"/>
  <guideline angle="90" x="175" y="0"/>
  <guideline angle="90" x="275" y="0"/>
</glyph>
<glyph name="E.alt" format="2">
  <advance width="240"/>
  <outline>
    <contour>
      <point x="25" y="0" type="line"/>
      <point x="125" y="0" type="line"/>
      <point x="125" y="600" type="line"/>
      <point x="25" y="600" type="line"/>
    </contour>
    <contour>
      <point x="125" y="516" type="line"/>
      <point x="225" y="516" type="line"/>
      <point x="225" y="600" type="line"/>
      <point x="125" y="600" type="line"/>
    </contour>
    <contour>
      <point x="125" y="0" type="line"/>
      <point x="225" y="0" type="line"/>
      <point x="225" y="84" type="line"/>
      <point x="125" y="84" type="line"/>
    </contour>
    <contour>
      <point x="95" y="265" type="line"/>
      <point x="200" y="265" type="line"/>
      <point x="200" y="349" type="line"/>
      <point x="95" y="349" type="line"/>
    </contour>
  </outline>
  <guideline angle="90" x="25" y="0"/>
  <guideline angle="90" x="225" y="0"/>
</glyph>
<glyph name="F.alt" format="2">
  <advance width="220"/>
  <outline>
    <contour>
      <point x="25" y="0" type="line"/>
      <point x="125" y="0" type="line"/>
      <point x="125" y="600" type="line"/>
      <point x="25" y="600" type="line"/>
    </contour>
    <contour>
      <point x="125" y="516" type="line"/>
      <point x="215" y="516" type="line"/>
      <point x="215" y="600" type="line"/>
      <point x="125" y="600" type="line"/>
    </contour>
    <contour>
      <point x="95" y="270" type="line"/>
      <point x="200" y="270" type="line"/>
      <point x="200" y="354" type="line"/>
      <point x="95" y="354" type="line"/>
    </contour>
  </outline>
  <guideline angle="0" x="0" y="383"/>
</glyph>
<glyph name="H.alt" format="2">
  <advance width="300"/>
  <outline>
    <contour>
      <point x="25" y="0" type="line"/>
      <point x="125" y="0" type="line"/>
      <point x="125" y="600" type="line"/>
      <point x="25" y="600" type="line"/>
    </contour>
    <contour>
      <point x="175" y="0" type="line"/>
      <point x="275" y="0" type="line"/>
      <point x="275" y="600" type="line"/>
      <point x="175" y="600" type="line"/>
    </contour>
    <contour>
      <point x="75" y="265" type="line"/>
      <point x="195" y="265" type="line"/>
      <point x="195" y="349" type="line"/>
      <point x="75" y="349" type="line"/>
    </contour>
  </outline>
</glyph>
<glyph name="I.alt" format="2">
  <advance width="150"/>
  <outline>
    <contour>
      <point x="25" y="0" type="line"/>
      <point x="125" y="0" type="line"/>
      <point x="125" y="600" type="line"/>
      <point x="25" y="600" type="line"/>
    </contour>
  </outline>
  <guideline angle="90" x="25" y="0"/>
  <guideline angle="90" x="-175" y="0"/>
  <guideline angle="90" x="55" y="0"/>
  <guideline angle="90" x="125" y="0"/>
</glyph>
<glyph name="K.alt" format="2">
  <advance width="290"/>
  <outline>
    <contour>
      <point x="188" y="0" type="line"/>
      <point x="290" y="0" type="line"/>
      <point x="198" y="333" type="line"/>
      <point x="280" y="600" type="line"/>
      <point x="177" y="600" type="line"/>
      <point x="143" y="471" type="line" smooth="yes"/>
      <point x="131" y="427"/>
      <point x="124" y="369"/>
      <point x="124" y="369" type="curve"/>
      <point x="122" y="369" type="line"/>
      <point x="122" y="369"/>
      <point x="125" y="426"/>
      <point x="125" y="474" type="curve" smooth="yes"/>
      <point x="125" y="600" type="line"/>
      <point x="25" y="600" type="line"/>
      <point x="25" y="0" type="line"/>
      <point x="125" y="0" type="line"/>
      <point x="125" y="172" type="line"/>
      <point x="134" y="220" type="line"/>
    </contour>
  </outline>
</glyph>
<glyph name="M.alt" format="2">
  <advance width="370"/>
  <outline>
    <contour>
      <point x="184" y="249" type="line"/>
      <point x="184" y="249"/>
      <point x="183" y="287"/>
      <point x="179" y="306" type="curve" smooth="yes"/>
      <point x="115" y="600" type="line"/>
      <point x="25" y="600" type="line"/>
      <point x="25" y="0" type="line"/>
      <point x="125" y="0" type="line"/>
      <point x="125" y="106" type="line" smooth="yes"/>
      <point x="125" y="175"/>
      <point x="115" y="273"/>
      <point x="110" y="325" type="curve"/>
      <point x="113" y="326" type="line"/>
      <point x="118" y="274"/>
      <point x="132" y="206"/>
      <point x="141" y="155" type="curve" smooth="yes"/>
      <point x="150" y="105" type="line"/>
      <point x="220" y="105" type="line"/>
      <point x="229" y="155" type="line" smooth="yes"/>
      <point x="238" y="206"/>
      <point x="252" y="274"/>
      <point x="257" y="326" type="curve"/>
      <point x="260" y="325" type="line"/>
      <point x="255" y="273"/>
      <point x="245" y="175"/>
      <point x="245" y="105" type="curve" smooth="yes"/>
      <point x="245" y="0" type="line"/>
      <point x="345" y="0" type="line"/>
      <point x="345" y="600" type="line"/>
      <point x="255" y="600" type="line"/>
      <point x="191" y="306" type="line" smooth="yes"/>
      <point x="187" y="286"/>
      <point x="186" y="249"/>
      <point x="186" y="249" type="curve"/>
    </contour>
  </outline>
  <guideline angle="90" x="95" y="0"/>
  <guideline angle="90" x="275" y="0"/>
  <guideline angle="90" x="185" y="0"/>
</glyph>
<glyph name="N.alt" format="2">
  <advance width="310"/>
  <outline>
    <contour>
      <point x="117" y="330" type="line"/>
      <point x="195" y="0" type="line"/>
      <point x="285" y="0" type="line"/>
      <point x="285" y="600" type="line"/>
      <point x="185" y="600" type="line"/>
      <point x="185" y="465" type="line" smooth="yes"/>
      <point x="185" y="365"/>
      <point x="196" y="291"/>
      <point x="196" y="291" type="curve"/>
      <point x="194" y="290" type="line"/>
      <point x="115" y="600" type="line"/>
      <point x="25" y="600" type="line"/>
      <point x="25" y="0" type="line"/>
      <point x="125" y="0" type="line"/>
      <point x="125" y="156" type="line" smooth="yes"/>
      <point x="125" y="235"/>
      <point x="115" y="329"/>
      <point x="115" y="329" type="curve"/>
    </contour>
  </outline>
  <guideline angle="90" x="95" y="0"/>
  <guideline angle="90" x="215" y="0"/>
</glyph>
<glyph name="O.alt" format="2">
  <advance width="300"/>
  <outline>
    <contour>
      <point x="150" y="-10" type="curve" smooth="yes"/>
      <point x="239" y="-10"/>
      <point x="275" y="36"/>
      <point x="275" y="115" type="curve" smooth="yes"/>
      <point x="275" y="485" type="line" smooth="yes"/>
      <point x="275" y="564"/>
      <point x="239" y="610"/>
      <point x="150" y="610" type="curve" smooth="yes"/>
      <point x="61" y="610"/>
      <point x="25" y="564"/>
      <point x="25" y="485" type="curve" smooth="yes"/>
      <point x="25" y="115" type="line" smooth="yes"/>
      <point x="25" y="36"/>
      <point x="61" y="-10"/>
    </contour>
    <contour>
      <point x="125" y="495" type="line" smooth="yes"/>
      <point x="125" y="509"/>
      <point x="133" y="520"/>
      <point x="150" y="520" type="curve" smooth="yes"/>
      <point x="167" y="520"/>
      <point x="175" y="509"/>
      <point x="175" y="495" type="curve" smooth="yes"/>
      <point x="175" y="105" type="line" smooth="yes"/>
      <point x="175" y="91"/>
      <point x="167" y="80"/>
      <point x="150" y="80" type="curve" smooth="yes"/>
      <point x="133" y="80"/>
      <point x="125" y="91"/>
      <point x="125" y="105" type="curve" smooth="yes"/>
    </contour>
  </outline>
  <guideline angle="0" x="0" y="610"/>
  <guideline angle="90" x="140" y="0"/>
</glyph>
<glyph name="P.alt" format="2">
  <advance width="300"/>
  <outline>
    <contour>
      <point x="275" y="296" type="curve" smooth="yes"/>
      <point x="275" y="475" type="line" smooth="yes"/>
      <point x="275" y="554"/>
      <point x="239" y="600"/>
      <point x="150" y="600" type="curve" smooth="yes"/>
      <point x="25" y="600" type="line"/>
      <point x="25" y="171" type="line"/>
      <point x="150" y="171" type="line" smooth="yes"/>
      <point x="239" y="171"/>
      <point x="275" y="217"/>
    </contour>
    <contour>
      <point x="125" y="516" type="line"/>
      <point x="150" y="516" type="line" smooth="yes"/>
      <point x="167" y="516"/>
      <point x="175" y="505"/>
      <point x="175" y="491" type="curve" smooth="yes"/>
      <point x="175" y="280" type="line" smooth="yes"/>
      <point x="175" y="266"/>
      <point x="167" y="255"/>
      <point x="150" y="255" type="curve" smooth="yes"/>
      <point x="125" y="255" type="line"/>
    </contour>
    <contour>
      <point x="25" y="0" type="line"/>
      <point x="125" y="0" type="line"/>
      <point x="125" y="171" type="line"/>
      <point x="25" y="171" type="line"/>
    </contour>
  </outline>
  <guideline angle="90" x="55" y="0"/>
  <guideline angle="90" x="95" y="0"/>
</glyph>
<glyph name="R.alt" format="2">
  <advance width="300"/>
  <outline>
    <contour>
      <point x="200" y="0" type="line"/>
      <point x="300" y="0" type="line"/>
      <point x="270" y="128" type="line" smooth="yes"/>
      <point x="252" y="206"/>
      <point x="210" y="245"/>
      <point x="210" y="245" type="curve"/>
      <point x="140" y="245" type="line"/>
    </contour>
    <contour>
      <point x="275" y="316" type="curve"/>
      <point x="275" y="475" type="line" smooth="yes"/>
      <point x="275" y="554"/>
      <point x="239" y="600"/>
      <point x="150" y="600" type="curve" smooth="yes"/>
      <point x="25" y="600" type="line"/>
      <point x="25" y="191" type="line"/>
      <point x="150" y="191" type="line" smooth="yes"/>
      <point x="239" y="191"/>
      <point x="275" y="237"/>
    </contour>
    <contour>
      <point x="125" y="516" type="line"/>
      <point x="150" y="516" type="line" smooth="yes"/>
      <point x="167" y="516"/>
      <point x="175" y="505"/>
      <point x="175" y="491" type="curve" smooth="yes"/>
      <point x="175" y="300" type="line" smooth="yes"/>
      <point x="175" y="286"/>
      <point x="167" y="275"/>
      <point x="150" y="275" type="curve" smooth="yes"/>
      <point x="125" y="275" type="line"/>
    </contour>
    <contour>
      <point x="25" y="0" type="line"/>
      <point x="125" y="0" type="line"/>
      <point x="125" y="191" type="line"/>
      <point x="25" y="191" type="line"/>
    </contour>
  </outline>
  <guideline angle="90" x="175" y="0"/>
  <guideline angle="90" x="275" y="0"/>
</glyph>
<glyph name="S.alt" format="2">
  <advance width="290"/>
  <outline>
    <contour>
      <point x="270" y="404" type="line"/>
      <point x="270" y="485" type="line" smooth="yes"/>
      <point x="270" y="564"/>
      <point x="234" y="610"/>
      <point x="145" y="610" type="curve" smooth="yes"/>
      <point x="56" y="610"/>
      <point x="20" y="564"/>
      <point x="20" y="485" type="curve" smooth="yes"/>
      <point x="20" y="437" type="line" smooth="yes"/>
      <point x="20" y="408"/>
      <point x="32" y="379"/>
      <point x="46" y="362" type="curve" smooth="yes"/>
      <point x="164" y="213" type="line"/>
      <point x="167" y="209"/>
      <point x="170" y="203"/>
      <point x="170" y="196" type="curve" smooth="yes"/>
      <point x="170" y="104" type="line" smooth="yes"/>
      <point x="170" y="92"/>
      <point x="162" y="80"/>
      <point x="145" y="80" type="curve" smooth="yes"/>
      <point x="128" y="80"/>
      <point x="120" y="91"/>
      <point x="120" y="105" type="curve" smooth="yes"/>
      <point x="120" y="235" type="line"/>
      <point x="20" y="235" type="line"/>
      <point x="20" y="115" type="line" smooth="yes"/>
      <point x="20" y="36"/>
      <point x="56" y="-10"/>
      <point x="145" y="-10" type="curve" smooth="yes"/>
      <point x="234" y="-10"/>
      <point x="270" y="36"/>
      <point x="270" y="116" type="curve" smooth="yes"/>
      <point x="270" y="191" type="line" smooth="yes"/>
      <point x="270" y="222"/>
      <point x="261" y="248"/>
      <point x="244" y="269" type="curve" smooth="yes"/>
      <point x="126" y="419" type="line"/>
      <point x="123" y="422"/>
      <point x="120" y="426"/>
      <point x="120" y="432" type="curve" smooth="yes"/>
      <point x="120" y="495" type="line" smooth="yes"/>
      <point x="120" y="509"/>
      <point x="128" y="520"/>
      <point x="145" y="520" type="curve" smooth="yes"/>
      <point x="162" y="520"/>
      <point x="170" y="509"/>
      <point x="170" y="495" type="curve" smooth="yes"/>
      <point x="170" y="404" type="line"/>
    </contour>
  </outline>
  <guideline angle="0" x="0" y="625"/>
  <guideline angle="0" x="0" y="635"/>
  <guideline angle="0" x="0" y="105"/>
  <guideline angle="0" x="0" y="115"/>
</glyph>
<glyph name="T.alt" format="2">
  <advance width="240"/>
  <outline>
    <contour>
      <point x="70" y="0" type="line"/>
      <point x="170" y="0" type="line"/>
      <point x="170" y="600" type="line"/>
      <point x="70" y="600" type="line"/>
    </contour>
    <contour>
      <point x="170" y="516" type="line"/>
      <point x="235" y="516" type="line"/>
      <point x="235" y="600" type="line"/>
      <point x="170" y="600" type="line"/>
    </contour>
    <contour>
      <point x="5" y="516" type="line"/>
      <point x="70" y="516" type="line"/>
      <point x="70" y="600" type="line"/>
      <point x="5" y="600" type="line"/>
    </contour>
  </outline>
</glyph>
<glyph name="V.alt" format="2">
  <advance width="280"/>
  <outline>
    <contour>
      <point x="75" y="0" type="line"/>
      <point x="205" y="0" type="line"/>
      <point x="280" y="600" type="line"/>
      <point x="181" y="600" type="line"/>
      <point x="161" y="346" type="line" smooth="yes"/>
      <point x="155" y="275"/>
      <point x="142" y="121"/>
      <point x="142" y="121" type="curve"/>
      <point x="140" y="121" type="line"/>
      <point x="140" y="121"/>
      <point x="127" y="274"/>
      <point x="121" y="346" type="curve" smooth="yes"/>
      <point x="101" y="600" type="line"/>
      <point x="0" y="600" type="line"/>
    </contour>
  </outline>
  <guideline angle="0" x="0" y="176"/>
  <guideline angle="90" x="140" y="0"/>
</glyph>
<glyph name="W.alt" format="2">
  <advance width="380"/>
  <outline>
    <contour>
      <point x="250" y="0" type="line"/>
      <point x="340" y="0" type="line"/>
      <point x="365" y="600" type="line"/>
      <point x="265" y="600" type="line"/>
      <point x="269" y="310" type="line" smooth="yes"/>
      <point x="269" y="284"/>
      <point x="270" y="232"/>
      <point x="270" y="232" type="curve"/>
      <point x="268" y="232" type="line"/>
      <point x="268" y="232"/>
      <point x="266" y="267"/>
      <point x="263" y="287" type="curve" smooth="yes"/>
      <point x="230" y="496" type="line"/>
      <point x="150" y="496" type="line"/>
      <point x="117" y="287" type="line" smooth="yes"/>
      <point x="114" y="267"/>
      <point x="112" y="232"/>
      <point x="112" y="232" type="curve"/>
      <point x="110" y="232" type="line"/>
      <point x="110" y="232"/>
      <point x="111" y="284"/>
      <point x="111" y="310" type="curve" smooth="yes"/>
      <point x="115" y="600" type="line"/>
      <point x="15" y="600" type="line"/>
      <point x="40" y="0" type="line"/>
      <point x="130" y="0" type="line"/>
      <point x="184" y="277" type="line"/>
      <point x="188" y="295"/>
      <point x="189" y="339"/>
      <point x="189" y="339" type="curve"/>
      <point x="191" y="339" type="line"/>
      <point x="191" y="339"/>
      <point x="192" y="295"/>
      <point x="196" y="277" type="curve"/>
    </contour>
  </outline>
  <guideline angle="0" x="0" y="280"/>
  <guideline angle="0" x="0" y="460"/>
  <guideline angle="0" x="0" y="217"/>
  <guideline angle="0" x="0" y="167"/>
</glyph>
<glyph name="X.alt" format="2">
  <advance width="300"/>
  <outline>
    <contour>
      <point x="290" y="600" type="line"/>
      <point x="190" y="600" type="line"/>
      <point x="163" y="473" type="line" smooth="yes"/>
      <point x="156" y="441"/>
      <point x="151" y="378"/>
      <point x="151" y="378" type="curve"/>
      <point x="149" y="378" type="line"/>
      <point x="149" y="378"/>
      <point x="144" y="441"/>
      <point x="137" y="473" type="curve" smooth="yes"/>
      <point x="110" y="600" type="line"/>
      <point x="10" y="600" type="line"/>
      <point x="80" y="315" type="line"/>
      <point x="0" y="0" type="line"/>
      <point x="100" y="0" type="line"/>
      <point x="137" y="170" type="line" smooth="yes"/>
      <point x="143" y="199"/>
      <point x="149" y="254"/>
      <point x="149" y="254" type="curve"/>
      <point x="151" y="254" type="line"/>
      <point x="151" y="254"/>
      <point x="157" y="199"/>
      <point x="163" y="170" type="curve" smooth="yes"/>
      <point x="200" y="0" type="line"/>
      <point x="300" y="0" type="line"/>
      <point x="220" y="315" type="line"/>
    </contour>
  </outline>
  <guideline angle="0" x="0" y="591"/>
  <guideline angle="0" x="0" y="213"/>
  <guideline angle="0" x="0" y="468"/>
  <guideline angle="0" x="0" y="320"/>
  <guideline angle="0" x="0" y="740"/>
  <guideline angle="90" x="30" y="0"/>
  <guideline angle="90" x="270" y="0"/>
</glyph>
<glyph name="Y.alt" format="2">
  <advance width="270"/>
  <outline>
    <contour>
      <point x="85" y="0" type="line"/>
      <point x="185" y="0" type="line"/>
      <point x="185" y="147" type="line"/>
      <point x="270" y="600" type="line"/>
      <point x="171" y="600" type="line"/>
      <point x="146" y="397" type="line" smooth="yes"/>
      <point x="143" y="370"/>
      <point x="137" y="273"/>
      <point x="137" y="273" type="curve"/>
      <point x="135" y="273" type="line"/>
      <point x="135" y="273"/>
      <point x="129" y="370"/>
      <point x="126" y="397" type="curve" smooth="yes"/>
      <point x="101" y="600" type="line"/>
      <point x="0" y="600" type="line"/>
      <point x="85" y="147" type="line"/>
    </contour>
  </outline>
  <guideline angle="0" x="0" y="517"/>
  <guideline angle="0" x="0" y="490"/>
  <guideline angle="0" x="0" y="325"/>
  <guideline angle="90" x="135" y="0"/>
</glyph>
<glyph name="Z.alt" format="2">
  <advance width="230"/>
  <outline>
    <contour>
      <point x="10" y="516" type="line"/>
      <point x="116" y="516" type="line"/>
      <point x="220" y="526" type="line"/>
      <point x="220" y="600" type="line"/>
      <point x="10" y="600" type="line"/>
    </contour>
    <contour>
      <point x="5" y="0" type="line"/>
      <point x="225" y="0" type="line"/>
      <point x="225" y="84" type="line"/>
      <point x="109" y="84" type="line"/>
      <point x="5" y="74" type="line"/>
    </contour>
    <contour>
      <point x="5" y="74" type="line"/>
      <point x="109" y="84" type="line"/>
      <point x="220" y="526" type="line"/>
      <point x="116" y="516" type="line"/>
    </contour>
  </outline>
  <guideline angle="90" x="190" y="0"/>
  <guideline angle="90" x="40" y="0"/>
</glyph>
